<?xml version="1.0" encoding="utf-8"?>
<!-- Generator: Adobe Illustrator 22.0.0, SVG Export Plug-In . SVG Version: 6.00 Build 0)  -->
<svg version="1.1" id="Capa_1" xmlns="http://www.w3.org/2000/svg" xmlns:xlink="http://www.w3.org/1999/xlink" x="0px" y="0px"
	 viewBox="0 0 512 512" style="enable-background:new 0 0 512 512;" xml:space="preserve">
<g>
	<path d="M402.1,66.4c-2.8-2.8-6.6-4.4-10.6-4.4c-6.7,0-178.9,0-195,0v-2c0-33.1-26.9-60-60-60s-60,26.9-60,60v2h-46
		c-8.3,0-15,6.7-15,15v420c0,8.3,6.7,15,15,15h451c8.3,0,15-6.7,15-15V167C496.5,157.1,496.7,162.2,402.1,66.4z M406.5,113.2
		l38.8,38.8h-38.8V113.2z M255.5,113.2l38.8,38.8h-38.8V113.2z M106.5,60c0-16.5,13.5-30,30-30s30,13.5,30,30v2h-60V60z M315.5,482
		h-270V92h31v73c0,24.8,20.2,45,45,45s45-20.2,45-45v-29c0-8.3-6.7-15-15-15s-15,6.7-15,15v29c0,8.3-6.7,15-15,15s-15-6.7-15-15V92
		h119v75c0,8.3,6.7,15,15,15h75V482z M466.5,482h-121c0-336.6,0.6-316.6-1.1-320.7c-2-4.8,0.9-0.2-67.6-69.3h99.8v75
		c0,8.3,6.7,15,15,15h75V482z"/>
	<path d="M76,256c0,8.3,6.7,15,15,15h180c8.3,0,15-6.7,15-15s-6.7-15-15-15H91C82.7,241,76,247.7,76,256z"/>
	<path d="M271,301H91c-8.3,0-15,6.7-15,15s6.7,15,15,15h180c8.3,0,15-6.7,15-15S279.3,301,271,301z"/>
	<path d="M151,361H91c-8.3,0-15,6.7-15,15s6.7,15,15,15h60c8.3,0,15-6.7,15-15S159.3,361,151,361z"/>
	<path d="M151,421H91c-8.3,0-15,6.7-15,15s6.7,15,15,15h60c8.3,0,15-6.7,15-15S159.3,421,151,421z"/>
	<path d="M270,361h-60c-8.3,0-15,6.7-15,15v60c0,8.3,6.7,15,15,15h60c8.3,0,15-6.7,15-15v-60C285,367.7,278.3,361,270,361z M255,421
		h-30v-30h30V421z"/>
</g>
</svg>
