<?xml version="1.0" encoding="utf-8"?>
<!-- Generator: Adobe Illustrator 22.0.0, SVG Export Plug-In . SVG Version: 6.00 Build 0)  -->
<svg version="1.1" id="Capa_1" xmlns="http://www.w3.org/2000/svg" xmlns:xlink="http://www.w3.org/1999/xlink" x="0px" y="0px"
	 viewBox="0 0 512 512" style="enable-background:new 0 0 512 512;" xml:space="preserve">
<style type="text/css">
	.st0{fill:#FF0000;}
</style>
<g>
	<g>
		<g>
			<path class="st0" d="M133.1,68.7l-17.6-26.7c-9.5,6.3-18.6,13.1-27.2,20.6l21,24.2C116.9,80.2,124.8,74.1,133.1,68.7z"/>
			<path class="st0" d="M256,0c-38.4-0.1-76.2,8.5-110.8,25.2L159.1,54c30.2-14.6,63.4-22.1,96.9-22c123.7,0,224,100.3,224,224
				S379.7,480,256,480S32,379.7,32,256c-0.1-34.3,7.7-68.1,22.9-98.8L26.2,143C8.9,178.1-0.1,216.8,0,256c0,141.4,114.6,256,256,256
				s256-114.6,256-256S397.4,0,256,0z"/>
			<path class="st0" d="M88.1,107.7l-24-21.2c-7.5,8.5-14.5,17.5-20.8,27l26.6,17.8C75.4,123,81.5,115.1,88.1,107.7z"/>
			<polygon class="st0" points="372.7,116.7 256,233.4 139.3,116.7 116.7,139.3 233.4,256 116.7,372.7 139.3,395.3 256,278.6 
				372.7,395.3 395.3,372.7 278.6,256 395.3,139.3 			"/>
		</g>
	</g>
</g>
</svg>
