<?xml version="1.0" encoding="utf-8"?>
<!-- Generator: Adobe Illustrator 22.0.0, SVG Export Plug-In . SVG Version: 6.00 Build 0)  -->
<svg version="1.1" id="Слой_1" xmlns="http://www.w3.org/2000/svg" xmlns:xlink="http://www.w3.org/1999/xlink" x="0px" y="0px"
	 viewBox="0 0 598 512" style="enable-background:new 0 0 598 512;" xml:space="preserve">
<g>
	<circle cx="328" cy="216" r="11"/>
	<circle cx="328" cy="276" r="11"/>
	<path d="M534,85h-86c-6.1,0-11,4.9-11,11c0,16-13,29-29,29s-29-13-29-29c0-6.1-4.9-11-11-11H208c-6.1,0-11,4.9-11,11
		c0,16-13,29-29,29s-29-13-29-29c0-6.1-4.9-11-11-11H42c-6.1,0-11,4.9-11,11v320c0,6.1,4.9,11,11,11h492c6.1,0,11-4.9,11-11V96
		C545,89.9,540.1,85,534,85z M523,107v298H53V107h65.2c5.1,23.2,25.9,40,49.8,40c23.8,0,44.6-16.8,49.8-40h140.4
		c5.1,23.2,25.9,40,49.8,40s44.7-16.8,49.8-40H523z"/>
	<path d="M213.1,272.9c10.1-9.7,15.9-23.1,15.9-36.9c0-28.1-22.9-51-51-51s-51,22.9-51,51c0,13.9,5.8,27.3,15.9,37
		C115,286.5,97,314.9,97,346v10c0,6.1,4.9,11,11,11h140c6.1,0,11-4.9,11-11v-10C259,315,241,286.4,213.1,272.9z M178,265
		c-16,0-29-13-29-29c0-16,13-29,29-29s29,13,29,29C207,252,194,265,178,265z M178,287c32.2,0,58.5,25.9,59,58H119
		C119.5,312.9,145.8,287,178,287z"/>
	<path d="M474,265H368c-6.1,0-11,4.9-11,11s4.9,11,11,11h106c6.1,0,11-4.9,11-11S480.1,265,474,265z"/>
	<path d="M357,216c0,6.1,4.9,11,11,11h106c6.1,0,11-4.9,11-11s-4.9-11-11-11H368C361.9,205,357,209.9,357,216z"/>
	<path d="M474,325H328c-6.1,0-11,4.9-11,11s4.9,11,11,11h146c6.1,0,11-4.9,11-11S480.1,325,474,325z"/>
</g>
</svg>
