<?xml version="1.0" encoding="utf-8"?>
<!-- Generator: Adobe Illustrator 22.0.0, SVG Export Plug-In . SVG Version: 6.00 Build 0)  -->
<svg version="1.1" id="Layer_1" xmlns="http://www.w3.org/2000/svg" xmlns:xlink="http://www.w3.org/1999/xlink" x="0px" y="0px"
	 viewBox="0 0 502 569" style="enable-background:new 0 0 502 569;" xml:space="preserve">
<style type="text/css">
	.st0{fill:#3365F4;}
</style>
<g>
	<path class="st0" d="M407.4,374.8V132.3c0-3-1.2-5.9-3.3-8.2l-95.3-95.3c-2.2-2.2-5.1-3.3-8.2-3.3H70.8c-6.3,0-11.5,5.2-11.5,11.5
		v445.9c0,6.3,5.2,11.5,11.5,11.5h215.6c16.4,23,41.9,36.1,70.1,36.1c47.5,0,86.1-38.6,86.1-86.1
		C442.7,416.5,429.9,391.2,407.4,374.8z M321.5,121.7c-6.3,0-11.5,5.2-11.5,11.5s5.2,11.5,11.5,11.5h62.9v218.2
		c-8.8-3-18.1-4.6-27.8-4.6c-47.5,0-86.1,38.6-86.1,86.1c0,9.3,1.5,18.4,4.4,27.1H82.3v-423h213.6l73.2,73.2H321.5z M419.6,444.4
		c0,16.8-6.5,32.6-18.4,44.5c-11.9,12-27.8,18.5-44.6,18.5c-22.2,0-42.4-11.4-54-30.4c-6-9.9-9.2-21.3-9.2-32.7
		c0-34.8,28.3-63.1,63.1-63.1c11.5,0,22.7,3.1,32.4,9c0.5,0.4,1.1,0.8,1.7,1C408.8,403,419.6,422.9,419.6,444.4z"/>
	<path class="st0" d="M368,432.9v-26.3c0-6.3-5.2-11.5-11.5-11.5s-11.5,5.2-11.5,11.5v26.3h-26.3c-6.3,0-11.5,5.2-11.5,11.5
		s5.2,11.5,11.5,11.5H345v26.3c0,6.3,5.2,11.5,11.5,11.5s11.5-5.2,11.5-11.5v-26.3h26.3c6.3,0,11.5-5.2,11.5-11.5
		s-5.2-11.5-11.5-11.5H368z"/>
	<path class="st0" d="M282.6,121.7h-11.4c-6.3,0-11.5,5.2-11.5,11.5s5.2,11.5,11.5,11.5h11.4c6.3,0,11.5-5.2,11.5-11.5
		S288.9,121.7,282.6,121.7z"/>
</g>
</svg>
