<?xml version="1.0" encoding="utf-8"?>
<!-- Generator: Adobe Illustrator 22.0.0, SVG Export Plug-In . SVG Version: 6.00 Build 0)  -->
<svg version="1.1" id="Capa_1" xmlns="http://www.w3.org/2000/svg" xmlns:xlink="http://www.w3.org/1999/xlink" x="0px" y="0px"
	 viewBox="0 0 502 502" style="enable-background:new 0 0 502 502;" xml:space="preserve">
<style type="text/css">
	.st0{fill:#29961E;}
</style>
<g>
	<g>
		<g>
			<path class="st0" d="M409.1,116.8L196.8,321.9l-64-61.8L40,350l156.8,151.6l305.2-295L409.1,116.8z M86,350l46.9-45.3l64,61.8
				l212.2-205.2l46.9,45.3L196.8,457.1L86,350z"/>
			<polygon class="st0" points="369.1,44.9 427.9,101.7 450.1,78.7 369.1,0.4 309,58.5 331.2,81.5 			"/>
			
				<rect x="269.6" y="87.3" transform="matrix(0.7187 -0.6953 0.6953 0.7187 8.4798 227.6518)" class="st0" width="32" height="32"/>
			
				<rect x="223.6" y="131.8" transform="matrix(0.7187 -0.6953 0.6953 0.7187 -35.401 208.1714)" class="st0" width="32" height="32"/>
			<polygon class="st0" points="82.1,268.5 46,233.6 92.9,188.3 156.8,250.1 216.2,192.7 194,169.7 156.8,205.6 92.9,143.8 0,233.6 
				59.9,291.5 			"/>
		</g>
	</g>
</g>
</svg>
