<?xml version="1.0" encoding="utf-8"?>
<!-- Generator: Adobe Illustrator 22.0.0, SVG Export Plug-In . SVG Version: 6.00 Build 0)  -->
<svg version="1.1" id="Capa_1" xmlns="http://www.w3.org/2000/svg" xmlns:xlink="http://www.w3.org/1999/xlink" x="0px" y="0px"
	 viewBox="0 0 512 512" style="enable-background:new 0 0 512 512;" xml:space="preserve">
<style type="text/css">
	.st0{fill:#FF6000;}
</style>
<g>
	<g>
		<g>
			<path class="st0" d="M506.2,365.6c-4.1-10.3-15.7-15.3-26-11.2s-15.3,15.7-11.2,26c5.2,13,3.5,27.9-4.6,39.8
				c-8.1,11.9-21,18.7-35.4,18.7H83.1c-15.8,0-29.8-8.2-37.5-22c-7.7-13.8-7.3-30.1,1-43.5l173-280.1C227.4,80.6,241.1,73,256,73
				c15,0,28.6,7.6,36.5,20.4l127.9,207.1c5.8,9.4,18.1,12.3,27.5,6.5c9.4-5.8,12.3-18.1,6.5-27.5L326.6,72.4
				C311.3,47.7,285,33,256,33s-55.3,14.7-70.5,39.3l-173,280.1c-16,26-16.7,57.4-1.9,84C25.5,463.1,52.6,479,83.1,479H429
				c27.9,0,52.9-13.2,68.6-36.3C513.1,419.8,516.3,391,506.2,365.6z"/>
			<path class="st0" d="M256,400c11,0,20-9,20-20c0-11-9-20-20-20h0c-11,0-20,9-20,20S245,400,256,400z"/>
			<path class="st0" d="M276,310V163c0-11-9-20-20-20c-11,0-20,9-20,20v147c0,11,9,20,20,20C267.1,330,276,321,276,310z"/>
		</g>
	</g>
</g>
</svg>
