<?xml version="1.0" encoding="utf-8"?>
<!-- Generator: Adobe Illustrator 22.0.0, SVG Export Plug-In . SVG Version: 6.00 Build 0)  -->
<svg version="1.1" id="Capa_1" xmlns="http://www.w3.org/2000/svg" xmlns:xlink="http://www.w3.org/1999/xlink" x="0px" y="0px"
	 viewBox="0 0 371.2 380.2" style="enable-background:new 0 0 371.2 380.2;" xml:space="preserve">
<style type="text/css">
	.st0{fill:#F8C701;}
</style>
<g>
	<path class="st0" d="M348.9,114.9c-0.9-1.7-2.3-2.9-4.1-3.4l-37-10.9h-2.6c-0.4,0-0.9,0.1-1.3,0.3c-0.2,0.1-0.3,0.1-0.3,0.1
		c-0.6,0-1.3,0.3-1.7,1c0,0,0,0,0,0c-0.2,0.1-0.6,0.3-1,0.7l-0.4,0.4c-0.5,0.5-1.1,1.5-1.2,2.4L289,138.5c-0.5,1.7-0.3,3.6,0.6,5.3
		c0.9,1.7,2.3,2.9,4.1,3.4c1.7,0.5,3.6,0.3,5.3-0.6c1.7-0.9,2.9-2.3,3.4-4l5.8-18.3c11.3,21,17.3,45.1,17.3,69.8
		c0,81.4-66.3,147.7-147.7,147.7c-81.4,0-147.7-66.3-147.7-147.7c0-81.4,66.3-147.7,147.7-147.7c24.9,0,49.4,6.3,70.9,18.2
		c3.3,1.9,7.4,0.8,9.6-2.5l0.1-0.1c1.9-3.3,0.8-7.4-2.5-9.6l-0.1-0.1c-23.5-12.9-50.3-19.8-77.5-19.8C88.9,32.6,16.5,105,16.5,194.1
		S88.9,355.6,178,355.6c89.1,0,161.5-72.4,161.5-161.5c0-26.4-6.2-51.7-18.5-75.2l19.8,5.8l0.1,0.1h0.2c0.1,0,0.3,0.1,0.4,0.1
		c0.4,0.1,0.8,0.3,1.3,0.3c3,0,5.6-2,6.6-5.1C349.9,118.4,349.7,116.5,348.9,114.9z"/>
	<path class="st0" d="M214.3,177.2l7.2-7.2c12.3-12.6,18.4-27.5,18.1-44.3h5.7l-0.2-1.7c0-0.1-0.8-7.4-0.8-10.6c0-0.1,0-0.3,0-0.4
		l0-0.4l0-1.2l-1.6,0.1H113.6l-1.3-0.1l0,0.1l-0.3,0l0,1.5c0,0.1,0,0.3,0,0.4c-0.2,2.1-0.3,6.8-0.3,9.3h-0.5v3h7.2
		c-0.5,9.9,1.6,27.4,18.1,44.4l7.2,7.2c12.4,12.4,12.8,12.9,12.8,16.9c0,4.6,0,4.6-13.6,18.5l-6,6c-17.1,17.1-18.5,35.7-18.1,44.4
		h-7.3v1.5c0,2.9,0.2,10.5,0.2,10.8l1.2,0v1.5h129.7l1.6,0.3l0-1.7c0-0.2,0-0.3,0-0.5c0-1.5,0.1-3.3,0.2-4.9
		c0.1-1.8,0.2-3.7,0.2-5.5V263h-5.5c0.5-10.2-1.5-28.1-18.1-44.4l-6-6c-13.6-13.6-13.6-13.8-13.6-18.5
		C201.5,190,201.9,189.1,214.3,177.2z M187.3,194.1c0,10.6,3,13.7,17.6,28.3l6,6c13.3,13.3,14.7,26.9,14.1,34.6h-92.5
		c-0.6-7.7,0.8-21.4,14.1-34.6l6-6c14.6-14.6,17.6-17.6,17.6-28.3c0-10.2-3.9-14.1-16.8-27.1l-7.2-7.2
		c-13.6-13.9-14.6-28.1-14.1-34.7h92.5c0.6,7.8-0.7,21.7-13.7,34.6l-7.2,7.2C191.3,179.5,187.3,184,187.3,194.1z"/>
</g>
</svg>
