<?xml version="1.0" encoding="utf-8"?>
<!-- Generator: Adobe Illustrator 22.0.0, SVG Export Plug-In . SVG Version: 6.00 Build 0)  -->
<svg version="1.1" id="Layer_1" xmlns="http://www.w3.org/2000/svg" xmlns:xlink="http://www.w3.org/1999/xlink" x="0px" y="0px"
	 viewBox="0 0 695 725" style="enable-background:new 0 0 695 725;" xml:space="preserve">
<path d="M617,588.8L491.1,461.9c28-37,44.7-83.2,44.7-133.1C535.8,207.1,436.7,108,315,108S94.2,207.1,94.2,328.8
	s99,220.8,220.8,220.8c49.9,0,96-16.6,133-44.6l126.6,126.2c5.7,5.7,13.2,8.8,21.2,8.8s15.6-3.1,21.2-8.8c5.7-5.7,8.8-13.2,8.8-21.2
	S622.6,594.4,617,588.8z M315,168c88.7,0,160.9,72.1,160.9,160.9c0,88.7-72.2,160.9-160.9,160.9s-160.9-72.2-160.9-160.9
	S226.3,168,315,168z"/>
</svg>
