<?xml version="1.0" encoding="utf-8"?>
<!-- Generator: Adobe Illustrator 22.0.0, SVG Export Plug-In . SVG Version: 6.00 Build 0)  -->
<svg version="1.1" id="Слой_1" xmlns="http://www.w3.org/2000/svg" xmlns:xlink="http://www.w3.org/1999/xlink" x="0px" y="0px"
	 viewBox="0 0 512 671" style="enable-background:new 0 0 512 671;" xml:space="preserve">
<path d="M439,412.4L118.7,89c-6-6.1-14-9.5-22.5-9.5c-17.5,0-31.7,14.2-31.7,31.7v469.6c0,17.5,14.2,31.7,31.7,31.7
	c8.5,0,16.8-3.5,22.8-9.7l130.2-136.3h167.3c17.5,0,31.7-14.2,31.7-31.7C448.2,426.3,444.9,418.4,439,412.4z M117.5,527.6V163
	l247.9,250.5H237.9c-7.3,0-14.4,3-19.2,8.1L117.5,527.6z"/>
</svg>
