<?xml version="1.0" encoding="utf-8"?>
<!-- Generator: Adobe Illustrator 22.0.0, SVG Export Plug-In . SVG Version: 6.00 Build 0)  -->
<svg version="1.1" id="Layer_1" xmlns="http://www.w3.org/2000/svg" xmlns:xlink="http://www.w3.org/1999/xlink" x="0px" y="0px"
	 viewBox="0 0 592 591" style="enable-background:new 0 0 592 591;" xml:space="preserve">
<path d="M547.4,156.2L428.8,37.6c-4.5-4.5-10.7-7.1-17.1-7.1h-356c-13.3,0-24.2,10.9-24.2,24.2v474.5c0,13.3,10.9,24.2,24.2,24.2
	h474.5c13.3,0,24.2-10.9,24.2-24.2V173.5C554.5,167.1,552,160.8,547.4,156.2z M198.6,178.8V79h188.8v99.8H198.6z M174.4,227.2h237.3
	c13.3,0,24.2-10.9,24.2-24.2v-89.7l70.2,70.2V505H80V79h70.2v124C150.2,216.3,161.1,227.2,174.4,227.2z"/>
</svg>
