<?xml version="1.0" encoding="utf-8"?>
<!-- Generator: Adobe Illustrator 22.0.0, SVG Export Plug-In . SVG Version: 6.00 Build 0)  -->
<svg version="1.1" id="Layer_1" xmlns="http://www.w3.org/2000/svg" xmlns:xlink="http://www.w3.org/1999/xlink" x="0px" y="0px"
	 viewBox="0 0 512 512" style="enable-background:new 0 0 512 512;" xml:space="preserve">
<g>
	<g>
		<g>
			<path d="M360.2,384.6l-213.4,0c-5.9,0-10.7,4.8-10.7,10.7c0,5.9,4.8,10.7,10.7,10.7l213.4,0c5.9,0,10.7-4.8,10.7-10.7
				C370.9,389.4,366.1,384.6,360.2,384.6z"/>
			<path d="M317.5,427.3h-128c-5.9,0-10.7,4.8-10.7,10.7s4.8,10.7,10.7,10.7h128c5.9,0,10.7-4.8,10.7-10.7
				C328.2,432,323.4,427.3,317.5,427.3z"/>
			<path d="M256,128c-64.7,0-117.3,52.6-117.3,117.3S191.3,362.7,256,362.7S373.3,310,373.3,245.3S320.7,128,256,128z M161.1,256
				h41.8c1.2,29.1,7.2,58,17.6,78.3C188.3,321.5,165.1,291.7,161.1,256z M202.9,234.7h-41.8c4-35.7,27.2-65.5,59.4-78.3
				C210.1,176.7,204.1,205.6,202.9,234.7z M256,341.3c-12.2,0-29.4-33-31.6-85.3h63.1C285.4,308.3,268.2,341.3,256,341.3z
				 M224.4,234.7c2.2-52.3,19.4-85.3,31.6-85.3s29.4,33,31.6,85.3H224.4z M291.5,334.3c10.4-20.4,16.4-49.3,17.6-78.3h41.8
				C346.9,291.7,323.7,321.5,291.5,334.3z M309.1,234.7c-1.2-29.1-7.2-58-17.6-78.3c32.2,12.9,55.4,42.7,59.4,78.3H309.1z"/>
			<path d="M405.3,64H384V42c0-23.3-19.7-42.2-42.7-42c-3.3,0-6.1,0.5-9.5,1.3L104.4,64.2C81.9,65.4,64,83.9,64,106.7v362.7
				c0,23.5,19.1,42.7,42.7,42.7h298.7c23.5,0,42.7-19.1,42.7-42.7V106.7C448,83.1,428.9,64,405.3,64z M337.3,22
				c12.4-3.2,25.4,6.9,25.4,20v22H185.3L337.3,22z M426.7,469.3c0,11.8-9.6,21.3-21.3,21.3H106.7c-11.8,0-21.3-9.6-21.3-21.3V106.7
				c0-11.8,9.6-21.3,21.3-21.3h298.7c11.8,0,21.3,9.6,21.3,21.3V469.3z"/>
		</g>
	</g>
</g>
</svg>
