<?xml version="1.0" encoding="utf-8"?>
<!-- Generator: Adobe Illustrator 22.1.0, SVG Export Plug-In . SVG Version: 6.00 Build 0)  -->
<svg version="1.1" id="Слой_1" xmlns="http://www.w3.org/2000/svg" xmlns:xlink="http://www.w3.org/1999/xlink" x="0px" y="0px"
	 viewBox="0 0 200 200" style="enable-background:new 0 0 200 200;" xml:space="preserve">
<g>
	<path d="M100,143.6c-24.1,0-43.6-19.6-43.6-43.6c0-24.1,19.6-43.7,43.6-43.6c24.1,0.1,43.5,19.5,43.6,43.6
		C143.7,124,124.1,143.6,100,143.6z M134.8,100c0.2-13.2-8-27.8-23.7-33.1c-15.4-5.2-32.2,0.9-40.8,14.7
		c-8.5,13.6-6.5,31.4,4.8,42.9c11.2,11.4,29,13.7,42.9,5.4c5.2-3.1,9.3-7.4,12.4-12.7c3-5.3,4.5-10.9,4.5-16.9
		c-0.1-0.1-0.3-0.2-0.4-0.3c-5.7,5.7-11.4,11.4-17.1,17.1c0-4.2,0-8.4,0-12.8c-8.7,0-17.4,0-26.1,0c0-3,0-5.8,0-8.7
		c8.7,0,17.4,0,26.1,0c0-4.3,0-8.6,0-13.1C123.3,88.4,129,94.1,134.8,100z"/>
</g>
</svg>
