<?xml version="1.0" encoding="utf-8"?>
<!-- Generator: Adobe Illustrator 22.1.0, SVG Export Plug-In . SVG Version: 6.00 Build 0)  -->
<svg version="1.1" id="Слой_1" xmlns="http://www.w3.org/2000/svg" xmlns:xlink="http://www.w3.org/1999/xlink" x="0px" y="0px"
	 viewBox="0 0 200 200" style="enable-background:new 0 0 200 200;" xml:space="preserve">
<g>
	<path d="M8.8,142.9c0-30.4,0-60.8,0-91.3c1.6-4.9,5.1-6.6,10.1-6.6c46.6,0.1,93.2,0.1,139.8,0.1c6.2,0,9.3,3.1,9.3,9.4
		c0,2.3,0,4.6,0,7.1c0.8,0,1.4,0,1.9,0c2.1,0,4.1,0,6.2,0c4.4,0,7,2.5,8.4,6.5c0,30.4,0,60.8,0,91.3c-1.6,4.9-5.1,6.6-10.1,6.6
		c-46.6-0.1-93.2-0.1-139.8-0.1c-6.2,0-9.3-3.1-9.3-9.4c0-2.3,0-4.6,0-7.1c-0.8,0-1.4,0-1.9,0c-2.1,0-4.1,0-6.2,0
		C12.8,149.4,10.2,146.9,8.8,142.9z M162.5,94.6c-49.5,0-98.8,0-148.2,0c0,0.6,0,1.2,0,1.8c0,14.6,0,29.2,0,43.7
		c0,3.1,0.7,3.8,3.9,3.8c46.8,0,93.7,0,140.5,0c3.1,0,3.9-0.7,3.9-3.8c0-14.6,0-29.2,0-43.7C162.5,95.9,162.5,95.3,162.5,94.6z
		 M162.5,89c0-11.5,0-22.8,0-34.2c0-3.6-0.6-4.2-4.2-4.2c-46.7,0-93.3,0-140,0c-0.6,0-1.3-0.2-1.7,0.1c-0.8,0.5-2.1,1.3-2.2,2
		c-0.3,2.9-0.1,5.9-0.1,8.9c0.9,0,1.6,0,2.4,0c38,0,76,0,114.1,0c0.6,0,1.3,0,1.9,0c1.5,0.2,2.3,1.2,2.3,2.7c0,1.5-0.8,2.5-2.3,2.7
		c-0.6,0.1-1.3,0-1.9,0c-38.1,0-76.2,0-114.2,0c-0.7,0-1.4,0-2.2,0c0,7.4,0,14.6,0,21.9C63.8,89,113.1,89,162.5,89z M30.9,149.4
		c-0.1,0.4-0.1,0.5-0.1,0.6c0,2.1,0,4.2,0,6.3c0,3.4,0.6,4.1,4.1,4.1c46.7,0,93.3,0,140,0c3.5,0,4.1-0.6,4.1-4.1
		c0-28.4,0-56.8,0-85.3c0-0.5,0-1,0-1.5c-0.2-1.4-1-2.4-2.4-2.4c-2.8-0.1-5.6,0-8.5,0c0,0.8,0,1.5,0,2.2c0,23.6,0,47.2,0,70.8
		c0,0.9,0,1.7-0.1,2.6c-0.8,4.3-4,6.8-8.8,6.8c-42,0-83.9,0-125.9,0C32.4,149.4,31.7,149.4,30.9,149.4z"/>
	<path d="M130.9,125.2c-5.8,3.5-11.5,2.9-15.2-1.6c-3.5-4.2-3.4-10.2,0.2-14.3c3.8-4.3,9.6-4.9,15-1.4c6.4-3.4,11.8-2.8,15.5,1.8
		c3.3,4.2,3.2,10-0.3,14C142.3,128.1,136.8,128.6,130.9,125.2z M144.1,116.9c0-3-1.7-5.3-4.2-6c-2.3-0.6-4.2,0.1-5.8,1.7
		c-2.7,2.7-3.6,2.8-6.3-0.1c-0.1-0.1-0.2-0.2-0.4-0.4c-1.9-1.6-4.3-2-6.4-0.9c-2.2,1.2-3.5,3.5-3.2,6c0.3,2.4,2.1,4.3,4.5,4.8
		c2.5,0.5,4.4-0.6,6-2.5c1.7-2.1,3.4-2,5.1,0c0.4,0.5,0.9,1,1.4,1.4c1.9,1.4,3.9,1.6,6,0.6C143,120.6,144,118.8,144.1,116.9z"/>
	<path d="M47.3,113.8c-6.3,0-12.6,0-18.8,0c-2.1,0-3.2-1-3.2-2.7c0-1.5,0.8-2.4,2.3-2.7c0.3,0,0.6,0,0.9,0c12.5,0,25,0,37.5,0
		c2.1,0,3.2,1,3.2,2.7c0,1.8-1.1,2.7-3.2,2.7C59.8,113.8,53.5,113.8,47.3,113.8z"/>
	<path d="M43.1,124.7c-4.8,0-9.6,0-14.4,0c-2.3,0-3.4-0.9-3.4-2.7c0-1.8,1.1-2.8,3.3-2.8c9.6,0,19.3,0,28.9,0c2.3,0,3.4,0.9,3.4,2.7
		c0,1.8-1.1,2.8-3.3,2.8C52.8,124.7,47.9,124.7,43.1,124.7z"/>
	<path d="M88.4,113.8c-1.8,0-3.5,0-5.3,0c-1.9,0-3-1.1-2.9-2.8c0-1.6,1.1-2.6,2.9-2.6c3.5,0,7.1,0,10.6,0c1.9,0,3,1.1,2.9,2.8
		c0,1.6-1.1,2.6-2.9,2.7C91.9,113.8,90.2,113.8,88.4,113.8z"/>
	<path d="M148.7,67.1c-1.8,0-3.5,0-5.3,0c-1.8,0-2.8-1.1-2.8-2.7c0-1.6,1-2.7,2.8-2.7c3.6,0,7.2,0,10.8,0c1.8,0,2.8,1.1,2.8,2.7
		c0,1.6-1,2.7-2.8,2.7C152.3,67.1,150.5,67.1,148.7,67.1z"/>
	<path d="M107.6,78c0-0.9,0-1.8,0-2.7c0.1-1.7,1.2-2.6,2.8-2.6c1.5,0,2.6,0.9,2.7,2.5c0.1,2,0.1,4,0,6c-0.1,1.5-1.2,2.5-2.7,2.5
		c-1.5,0-2.6-1-2.7-2.5C107.6,80,107.6,79,107.6,78z"/>
	<path d="M126.8,78.2c0,1,0.1,1.9,0,2.9c-0.1,1.6-1.2,2.5-2.7,2.5c-1.5,0-2.6-0.9-2.7-2.5c-0.1-2-0.1-4,0-6c0.1-1.6,1.2-2.5,2.7-2.5
		c1.5,0,2.5,0.9,2.7,2.5c0,0.1,0,0.2,0,0.3C126.8,76.3,126.8,77.3,126.8,78.2C126.8,78.2,126.8,78.2,126.8,78.2z"/>
	<path d="M140.5,78.1c0,0.9,0,1.8,0,2.7c-0.1,1.7-1.1,2.7-2.7,2.7c-1.6,0-2.7-1-2.8-2.6c-0.1-1.9-0.1-3.8,0-5.6
		c0.1-1.7,1.1-2.7,2.7-2.7c1.6,0,2.7,1,2.8,2.6C140.6,76.2,140.5,77.2,140.5,78.1z"/>
	<path d="M154.3,78.2c0,1,0.1,1.9,0,2.9c-0.1,1.6-1.2,2.5-2.7,2.5c-1.5,0-2.6-0.9-2.7-2.5c-0.1-2-0.1-4,0-6c0.1-1.5,1.2-2.5,2.7-2.5
		c1.5,0,2.5,0.9,2.7,2.5c0,0.1,0,0.2,0,0.3C154.3,76.4,154.3,77.3,154.3,78.2C154.3,78.2,154.3,78.2,154.3,78.2z"/>
	<path d="M93.9,78.1c0-1,0-1.9,0-2.9c0.1-1.7,1.2-2.6,2.8-2.6c1.5,0,2.6,1,2.7,2.5c0.1,1.9,0.1,3.9,0,5.8c-0.1,1.7-1.2,2.6-2.8,2.6
		c-1.6,0-2.6-1-2.7-2.7C93.9,79.9,93.9,79,93.9,78.1z"/>
	<path d="M82.9,78.2c0,1,0.1,1.9,0,2.9c-0.1,1.6-1.2,2.5-2.7,2.5c-1.5,0-2.6-0.9-2.7-2.5c-0.1-2-0.1-4,0-6c0.1-1.6,1.2-2.5,2.7-2.5
		c1.5,0,2.6,0.9,2.7,2.5C83,76.1,82.9,77.1,82.9,78.2z"/>
	<path d="M69.2,78.1c0,1,0.1,2.1,0,3.1c-0.1,1.5-1.3,2.5-2.8,2.4c-1.5-0.1-2.5-0.9-2.6-2.4c-0.1-2-0.1-4,0-6c0.1-1.5,1-2.4,2.5-2.5
		c1.4-0.1,2.6,0.9,2.9,2.4c0,0.1,0,0.2,0,0.3C69.2,76.2,69.2,77.1,69.2,78.1C69.2,78.1,69.2,78.1,69.2,78.1z"/>
	<path d="M55.4,78.2c0,1,0.1,1.9,0,2.9c-0.1,1.6-1.2,2.5-2.7,2.5c-1.5,0-2.6-1-2.7-2.5c-0.1-1.9-0.1-3.9,0-5.8
		c0.1-1.6,1.1-2.6,2.6-2.6c1.5,0,2.6,1,2.8,2.5C55.5,76.1,55.4,77.1,55.4,78.2z"/>
	<path d="M36.3,78c0-0.9,0-1.8,0-2.7c0.1-1.6,1.1-2.6,2.6-2.7c1.4-0.1,2.8,0.9,2.8,2.4c0.1,2.1,0.1,4.2,0,6.3
		c-0.1,1.4-1.2,2.2-2.6,2.2c-1.5,0-2.5-0.8-2.7-2.3C36.2,80.2,36.3,79.1,36.3,78C36.3,78,36.3,78,36.3,78z"/>
	<path d="M22.5,78.1c0-0.9,0-1.8,0-2.7c0.1-1.7,1.1-2.7,2.7-2.7c1.5,0,2.7,1.1,2.8,2.7c0.1,1.9,0.1,3.8,0,5.7
		c-0.1,1.7-1.2,2.6-2.8,2.6c-1.5,0-2.5-1-2.7-2.6C22.5,80,22.5,79,22.5,78.1C22.5,78.1,22.5,78.1,22.5,78.1z"/>
</g>
</svg>
