<?xml version="1.0" encoding="utf-8"?>
<!-- Generator: Adobe Illustrator 22.1.0, SVG Export Plug-In . SVG Version: 6.00 Build 0)  -->
<svg version="1.1" id="Слой_1" xmlns="http://www.w3.org/2000/svg" xmlns:xlink="http://www.w3.org/1999/xlink" x="0px" y="0px"
	 viewBox="0 0 200 200" style="enable-background:new 0 0 200 200;" xml:space="preserve">
<style type="text/css">
	.st0{clip-path:url(#SVGID_2_);}
</style>
<g>
	<defs>
		<rect id="SVGID_1_" x="5.5" y="5.5" width="189" height="189"/>
	</defs>
	<clipPath id="SVGID_2_">
		<use xlink:href="#SVGID_1_"  style="overflow:visible;"/>
	</clipPath>
	<g class="st0">
		<path d="M114,70.8c5.3-1.1,10.5-2.1,15.8-3.2c-0.3-6.4-1.3-12.8-3.8-18.9c-3.1-7.5-6.5-14.8-9.8-22.3c-1.4-3.2-1.3-4.7,0.6-5.6
			c1.9-0.9,3.3-0.1,4.8,3.2c2.9,6.5,5.9,13,8.8,19.5c3,6.8,4.6,14,5.2,21.4c0.1,0.9,0.2,1.8,0.3,2.9c2.5,0.4,5,0.6,7.5,1.1
			c22.9,4,41.7,23.3,45,46.2c4.3,29.9-13.9,56.7-43.3,63.6c-29.5,6.9-60.2-12.6-66.6-42.3c-0.6-2.7-0.9-5.5-1.2-8.2
			c-0.1-1.1-0.5-1.6-1.6-1.7c-7.3-0.7-13.8-3.4-19.5-7.9c-14.1-11.1-28.3-22.2-42.4-33.2c-1.1-0.9-2-1.9-1.6-3.4
			c0.5-2.3,3-3,5.1-1.3c4.6,3.5,9.1,7.1,13.6,10.7c9.7,7.6,19.3,15.3,29.1,22.7c10.9,8.2,22.9,9.5,35,3.2
			c12.2-6.4,17.9-17,17.4-30.7c-0.2-6.7-2.7-12.7-6.8-18c-11-14.1-22.1-28.2-33.1-42.3c-0.2-0.3-0.5-0.6-0.7-0.9
			c-1-1.5-0.8-3.1,0.5-4.1c1.3-1,3-0.9,4.1,0.5c1.7,2,3.3,4.1,4.9,6.2c9.4,12,18.8,23.9,28.1,35.9C110.8,66.1,112.4,68.5,114,70.8z
			 M83,126.9c0.4,17.5,12.8,39,36.6,45.4c22.6,6.2,46-3.8,57.3-24.2c11.1-20,7-45.3-9.9-61c-16.3-15.1-38.5-15.7-50.6-10.2
			c0.6,2.8,1.1,5.5,1.7,8.2c2.7-0.7,5.4-1.6,8.1-1.9c3.3-0.4,6.7-0.4,10.1-0.4c1.7,0,2.6,1.6,2.5,3.1c-0.1,1.5-1.3,2.6-3,2.7
			c-0.5,0-1,0-1.5-0.1c-5.2-0.2-10.3,0.7-15.1,2.8c-0.6,0.3-1.3,1.1-1.4,1.8c-1.8,12.5-8,22-18.9,28.4c-1.2,0.7-1.5,1.5-1.5,2.8
			c0.1,21,18.8,37.4,39.8,34.7c13.4-1.7,23.1-9,28.3-21.4c5.3-12.5,3.4-24.4-4.6-35.4c-0.4-0.5-0.9-1.1-1.2-1.7
			c-0.9-2,0.5-4.3,2.7-4c1,0.1,2.2,0.9,2.8,1.7c7.6,9.7,10.4,20.7,8.3,32.9c-3.2,18.7-19.2,32.8-38.2,34
			c-18.9,1.1-36.4-11-41.9-29.1c-1.1-3.6-1.5-7.3-2.2-10.9C88.6,125.8,85.8,126.4,83,126.9z"/>
		<path d="M80.9,112.2c-6.5,0-11.2-1.5-15.3-4.7c-6.3-4.9-12.5-9.9-18.7-15c-4.9-4-6.7-10.1-4.8-15.9c0.7-2.2,2.2-3.2,3.9-2.7
			c1.7,0.5,2.4,2.1,1.7,4.4c-1.1,4.1,0,7.4,3.3,10c5.9,4.7,11.8,9.5,17.7,14.2c7.1,5.7,17,5.1,23.5-1.4c6.3-6.3,7-16.5,1.4-23.6
			c-4.7-5.9-9.5-11.8-14.2-17.7c-3.6-4.4-8.5-5.1-13-1.6c-3.4,2.6-6.5,5.6-9.7,8.4c-1.7,1.5-3.5,1.6-4.7,0.2c-1-1.2-1.1-2.9,0.2-4
			c4-3.6,8-7.4,12.4-10.4c5.7-4,13.7-2.8,18.3,2.5c5.6,6.6,11.2,13.2,16.3,20.3c5.5,7.7,5.8,16.2,1.3,24.6
			C96,107.9,88.8,111.8,80.9,112.2z"/>
		<path d="M129.9,121c0-2.8,0-5.5,0-8.2c0-2.2,1.2-3.5,2.9-3.5c1.8,0,2.9,1.3,3,3.5c0,2.7,0,5.4,0,8.2c0.9,0.2,1.6,0.3,2.4,0.4
			c5,1.1,8.8,5.1,9.3,10.2c0.2,2,0.2,4.1-0.1,6.1c-0.9,5.8-4.9,9.3-11.5,10.2c-0.4,2.3,0.7,5.7-3.1,5.7c-3.7,0-2.7-3.3-3-5.7
			c-3.9-0.3-7.3-1.6-9.3-4.9c-1.2-1.9-1.9-4.2-2.3-6.5c-0.4-1.9,0.9-3.4,2.7-3.5c1.7-0.1,2.9,1.1,3.2,3.1c0.4,3.4,2.3,5.4,5.9,5.7
			c0-2.8,0-5.6,0-8.4c0-1.6,0.7-2.7,2.2-3.2c1.9-0.6,3.6,0.9,3.7,3c0.1,2.8,0,5.6,0,8.5c3.1,0.2,5.7-2.1,5.9-5.3
			c0.1-1.1,0.1-2.2,0-3.3c-0.1-3.4-2.6-5.8-6-5.9c-2,0-3.9,0-5.9,0c-6.5-0.1-11.5-5.2-11.7-11.6c0-1.7-0.1-3.3,0.2-5
			c0.9-5.7,5.1-9.3,11.6-10c0-0.9,0-1.7,0-2.6c0.1-1.9,1.2-3.1,2.9-3.2c1.7,0,2.9,1.2,3,3.1c0,0.9,0,1.7,0,2.6c1,0.2,2,0.3,2.9,0.5
			c4.8,1.2,8.6,5.6,8.9,10.6c0.1,2.2-0.9,3.6-2.6,3.8c-1.8,0.2-3-1.1-3.2-3.2c-0.4-3.4-2.7-5.6-6.1-5.6c-1.9,0-3.8,0-5.7,0
			c-3.3,0.1-5.8,2.5-5.9,5.9c0,1,0,2,0,3C124.1,118.4,126.3,120.7,129.9,121z"/>
		<path d="M154,94.9c-1.1-0.4-1.7-0.5-2.2-0.8c-1.7-0.9-3.5-1.8-5.2-2.7c-1.7-0.9-2.4-2.4-1.7-3.9c0.7-1.6,2.3-2.2,4-1.4
			c2.1,1,4.2,2.1,6.2,3.3c1.2,0.7,1.8,2,1.2,3.3C155.8,93.5,154.7,94.2,154,94.9z"/>
	</g>
</g>
</svg>
