<?xml version="1.0" encoding="utf-8"?>
<!-- Generator: Adobe Illustrator 22.1.0, SVG Export Plug-In . SVG Version: 6.00 Build 0)  -->
<svg version="1.1" id="Слой_1" xmlns="http://www.w3.org/2000/svg" xmlns:xlink="http://www.w3.org/1999/xlink" x="0px" y="0px"
	 viewBox="50 50 100 100" style="enable-background:new 0 0 200 200;" xml:space="preserve">
<g>
	<path d="M56.2,99.9c0-24.3,19.8-44,44.1-44c24.2,0,43.9,19.8,43.9,44.1c0,24.3-19.9,44-44.1,44C75.8,143.9,56.1,124.2,56.2,99.9z
		 M100.2,59c-22.6,0-41,18.4-41,41c0,22.6,18.4,41,40.9,41c22.6,0,41-18.4,41-41C141.1,77.4,122.7,59,100.2,59z"/>
	<path d="M107.8,108.4c5.1,1.2,9.6,3.2,13.6,6.4c1,0.8,1.9,1.6,2.9,2.5c1.2,1.1,2.1,1,2.9-0.4c7.6-12.1,6.1-27.9-3.6-38.4
		c-1-1.1-2.1-2-3.1-3c-0.8-0.8-1-1.6-0.4-2.3c0.6-0.7,1.5-0.7,2.3,0c9.1,7.9,13.3,17.8,12.5,29.8c-0.4,5.6-2.2,10.7-5.1,15.4
		c-1.9,3-5,3.4-7.7,1c-6.4-6-14-9-22.7-8.8c-8.1,0.2-15.1,3.1-21.1,8.6c-1.3,1.2-2.8,2-4.6,1.6c-1.3-0.3-2.3-1-3-2.1
		c-4.1-6.6-6.1-13.8-5.3-21.6c1.4-13.3,8.1-23,20.2-28.9c5.9-2.9,12.2-3.7,18.8-3c0.1,0,0.2,0,0.4,0.1c1.1,0.2,1.7,0.8,1.5,1.7
		c-0.1,0.9-0.9,1.3-2,1.3c-2.4-0.1-4.7-0.3-7.1-0.1c-13.7,1.2-25.2,11.2-28.1,24.6c-1.9,8.5-0.5,16.4,4,23.9c0.9,1.5,1.8,1.6,3,0.4
		c5.3-5,11.5-8,18.7-9.1c0.7-0.1,1-0.4,1.2-0.9c2.8-6.4,5.7-12.8,8.5-19.1c0.1-0.3,0.2-0.7,0.5-0.9c0.5-0.3,1.1-0.7,1.5-0.6
		c0.5,0.1,0.9,0.7,1.2,1.2c0.2,0.2,0.1,0.6,0.1,0.9c0,6.3,0,12.5,0,18.8C107.8,107.7,107.8,108,107.8,108.4z M104.7,95.5
		c0,0-0.1,0-0.1-0.1c-1.8,4-3.6,8-5.4,12.1c1.9,0.1,3.7,0.2,5.5,0.3C104.7,103.7,104.7,99.6,104.7,95.5z"/>
	<path d="M100.2,122.8c-3.9,0-7.8,0-11.7,0c-0.3,0-0.6,0-0.9,0c-0.8-0.2-1.2-0.7-1.2-1.5c0-0.8,0.4-1.3,1.2-1.5c0.1,0,0.3,0,0.5,0
		c8.1,0,16.2,0,24.3,0c1.2,0,2,0.9,1.6,2c-0.3,0.9-1,1.1-1.8,1.1C108.2,122.8,104.2,122.8,100.2,122.8z"/>
	<path d="M95.6,128.8c-1.5,0-3,0-4.5,0c-1,0-1.7-0.6-1.7-1.5c0-0.9,0.7-1.6,1.8-1.6c3,0,6,0,9,0c1.1,0,1.7,0.6,1.7,1.5
		c0,1-0.6,1.5-1.7,1.6C98.7,128.8,97.2,128.8,95.6,128.8z"/>
	<path d="M116.7,69.9c0,1.3-1,2.1-1.9,1.7c-1.2-0.5-2.5-1-3.6-1.6c-0.7-0.4-1-1.2-0.6-1.9c0.4-0.7,1-1.1,1.8-0.8
		c1.2,0.5,2.4,1,3.5,1.6C116.3,69.1,116.5,69.7,116.7,69.9z"/>
	<path d="M107.8,128.8c-0.5,0-1.1,0-1.6,0c-0.9,0-1.6-0.7-1.6-1.5c0-0.8,0.6-1.5,1.5-1.5c1.1,0,2.3,0,3.4,0c0.9,0,1.5,0.7,1.5,1.5
		c0,0.8-0.6,1.4-1.5,1.5C108.9,128.9,108.4,128.8,107.8,128.8z"/>
	<path d="M77.4,101.5c-0.5,0-1.1,0-1.6,0c-0.8-0.1-1.4-0.7-1.4-1.5c0-0.8,0.6-1.4,1.4-1.5c1.1,0,2.2-0.1,3.2,0
		c0.8,0,1.4,0.7,1.4,1.5c0,0.8-0.6,1.4-1.4,1.5C78.5,101.5,77.9,101.5,77.4,101.5z"/>
	<path d="M123,101.5c-0.5,0-1.1,0-1.6,0c-0.9-0.1-1.5-0.7-1.5-1.5c0-0.8,0.6-1.5,1.5-1.5c1,0,2,0,3,0c0.9,0,1.5,0.7,1.5,1.5
		c0,0.8-0.6,1.4-1.5,1.5C124,101.5,123.5,101.5,123,101.5z"/>
	<path d="M101.7,77.2c0,0.5,0,1.1,0,1.6c-0.1,0.8-0.7,1.4-1.5,1.4c-0.8,0-1.5-0.6-1.5-1.4c0-1.1-0.1-2.2,0-3.2
		c0-0.8,0.7-1.4,1.5-1.4c0.8,0,1.4,0.6,1.5,1.4C101.7,76.2,101.7,76.7,101.7,77.2z"/>
	<path d="M87,84.9c-0.3,0.3-0.5,0.9-0.9,1.1c-0.5,0.2-1.2,0.1-1.6-0.1c-0.9-0.7-1.7-1.6-2.4-2.5c-0.5-0.6-0.4-1.3,0.2-1.9
		c0.6-0.6,1.3-0.7,1.9-0.2c0.9,0.8,1.7,1.7,2.6,2.7C86.9,84.1,86.9,84.5,87,84.9z"/>
	<path d="M113.3,84.7c0.3-0.5,0.4-0.8,0.6-1.1c0.7-0.7,1.4-1.5,2.1-2.2c0.7-0.6,1.5-0.6,2.1,0c0.6,0.6,0.6,1.4,0.1,2
		c-0.7,0.8-1.4,1.6-2.3,2.3c-0.4,0.3-1.2,0.4-1.6,0.2C113.8,85.8,113.6,85.2,113.3,84.7z"/>
	<path d="M124.2,108.8c0,1.2-1,2-1.9,1.7c-1.1-0.3-2.1-0.8-3.1-1.3c-0.8-0.4-1-1.2-0.7-1.9c0.4-0.8,1-1.1,1.8-0.8
		c1.1,0.4,2.1,0.8,3.1,1.3C123.8,108,124,108.6,124.2,108.8z"/>
	<path d="M80.9,93.1c-1.5-0.7-2.8-1.3-4-2c-0.6-0.3-0.7-1.2-0.2-1.7c0.4-0.4,1.1-0.8,1.5-0.7c1.2,0.3,2.4,0.9,3.4,1.5
		c0.4,0.2,0.6,1.1,0.4,1.6C82,92.3,81.4,92.6,80.9,93.1z"/>
	<path d="M119.7,93c-0.8-0.2-1.4-0.5-1.5-1.2c-0.1-0.5,0.1-1.4,0.5-1.6c1-0.7,2.2-1.1,3.3-1.5c0.7-0.2,1.3,0.1,1.6,0.8
		c0.3,0.6,0.3,1.4-0.3,1.7C122.2,91.9,120.9,92.4,119.7,93z"/>
	<path d="M80.6,106.2c0.5,0.5,1,0.8,1.2,1.3c0.3,0.6,0.1,1.4-0.6,1.7c-1.1,0.5-2.2,1-3.3,1.3c-0.7,0.2-1.3-0.1-1.6-0.8
		c-0.3-0.6-0.3-1.4,0.3-1.7C77.8,107.4,79.2,106.9,80.6,106.2z"/>
	<path d="M109,76c1.3,0,2,1,1.7,1.9c-0.4,1.1-0.8,2.1-1.3,3.1c-0.4,0.8-1.1,1-1.8,0.7c-0.7-0.2-1.2-1.1-0.9-1.8c0.4-1,0.7-2.1,1.3-3
		C108.2,76.4,108.7,76.1,109,76z"/>
	<path d="M91.4,76c0.2,0.2,0.8,0.5,1,0.9c0.5,0.9,0.9,1.9,1.2,3c0.3,0.8-0.1,1.6-0.8,1.9c-0.7,0.3-1.6,0.1-1.9-0.7
		c-0.5-1-0.9-2-1.2-3.1C89.3,77,90.1,76,91.4,76z"/>
</g>
</svg>
