<?xml version="1.0" encoding="utf-8"?>
<!-- Generator: Adobe Illustrator 22.1.0, SVG Export Plug-In . SVG Version: 6.00 Build 0)  -->
<svg version="1.1" id="Слой_1" xmlns="http://www.w3.org/2000/svg" xmlns:xlink="http://www.w3.org/1999/xlink" x="0px" y="0px"
	 viewBox="0 0 200 200" style="enable-background:new 0 0 200 200;" xml:space="preserve">
<g>
	<path d="M165.2,66.1c0,2.5,0,4.8,0,7.2c0,3.9-2.1,5.9-6,5.9c-1.4,0-2.8,0-4.3,0c0,20.9,0,41.6,0,62.6c1.5,0,3.1,0,4.7,0
		c3.5,0,5.6,2.2,5.7,5.7c0,1.5,0,3,0,4.7c1.7,0,3.2,0,4.8,0c3.4,0,5.6,2.2,5.6,5.6c0,4,0,7.9,0,11.9c0,2.5-0.9,3.4-3.5,3.4
		c-19.6,0-39.2,0-58.9,0c-28.4,0-56.7,0-85.1,0c-3.2,0-3.9-0.7-3.9-3.9c0-3.7,0-7.5,0-11.2c0-3.6,2.1-5.7,5.7-5.7c1.5,0,3,0,4.8,0
		c0-1.6,0-3.2,0-4.7c0-3.6,2.1-5.7,5.7-5.7c1.5,0,3,0,4.6,0c0-20.9,0-41.7,0-62.6c-1.6,0-3.3,0-4.9,0c-3.2,0-5.4-2.2-5.5-5.4
		c0-2.4,0-4.9-0.1-7.3c0,0-0.1-0.1-0.2-0.3c-1.2,0-2.6,0-4,0c-3.1-0.1-5.4-1.8-6-4.7c-0.6-2.6,0.9-5.4,3.7-6.6c4.8-2,9.6-4,14.5-5.9
		c17.8-7,35.6-14,53.4-21.1c2.7-1.1,5.3-1.1,7.9,0c22.4,8.9,44.8,17.8,67.2,26.7c3.4,1.4,5.1,4.2,4.4,7.1c-0.7,2.8-2.8,4.5-5.6,4.6
		C168.4,66.1,167,66.1,165.2,66.1z M66.2,141.6c22.6,0,45.2,0,67.6,0c0-20.9,0-41.7,0-62.4c-22.6,0-45.1,0-67.6,0
		C66.2,100,66.2,120.8,66.2,141.6z M160,73.8c0-3.3,0-6.5,0-9.7c0-2.4,0.9-3.3,3.4-3.3c1.8,0,3.6,0,5.4,0c0.5,0,1.1-0.3,1.6-0.5
		c-0.4-0.4-0.8-0.9-1.3-1.1c-22.3-8.9-44.6-17.7-66.8-26.6c-1.6-0.6-3-0.6-4.6,0.1c-22,8.8-44.1,17.5-66.1,26.3
		c-0.7,0.3-1.3,0.9-1.9,1.4c0.7,0.2,1.5,0.5,2.2,0.5c32.9,0,65.8,0,98.6,0c2.2,0,3.4,0.9,3.4,2.6c0,1.7-1.2,2.6-3.4,2.6
		c-0.3,0-0.7,0-1,0c-29.2,0-58.4,0-87.5,0c-0.6,0-1.3,0-1.9,0c0,2.7,0,5.3,0,7.7C80.1,73.8,120,73.8,160,73.8z M40.1,147
		c-0.1,0.2-0.1,0.3-0.1,0.4c0,2.1,0,4.2,0,6.4c0,2.8-0.8,3.6-3.6,3.6c-2.3,0-4.5,0-6.7,0c0,3.6,0,7,0,10.3c47,0,93.8,0,140.7,0
		c0-3.5,0-6.9,0-10.3c-2.4,0-4.7,0-7,0c-2.4,0-3.3-0.9-3.3-3.3c0-2.3,0-4.6,0-7C120,147,80.1,147,40.1,147z M149.5,141.7
		c0-20.9,0-41.7,0-62.5c-3.5,0-6.8,0-10.3,0c0,20.9,0,41.6,0,62.5C142.7,141.7,146.1,141.7,149.5,141.7z M50.5,79.1
		c0,21,0,41.7,0,62.5c3.5,0,6.9,0,10.2,0c0-20.9,0-41.6,0-62.4c-0.3,0-0.6-0.1-0.9-0.1C56.8,79.1,53.8,79.1,50.5,79.1z"/>
	<path d="M102.8,128.8c-0.5,4.2-1.1,5.1-2.9,5.1c-1.8-0.1-2.3-1.1-2.6-5.1c-0.8-0.1-1.6-0.3-2.5-0.5c-4.5-1.1-7.9-5.4-7.9-9.8
		c0-1.2,0.4-2.3,1.6-2.6c0.8-0.2,2-0.1,2.7,0.4c0.6,0.4,0.8,1.5,1,2.3c0.4,2.8,2.3,4.6,5.2,4.8c0-1.6,0-3.1,0-4.7
		c0-1.9,1.1-3.1,2.6-3c1.5,0,2.5,1.2,2.6,3c0,1.6,0,3.1,0,4.7c2.8,0,5.1-2.1,5.2-4.8c0.1-2.8-2-5.3-4.9-5.5c-1.7-0.1-3.5,0-5.2,0
		c-5.8,0-10.4-4.2-10.7-9.7c-0.4-5.7,3.7-10.4,9.6-11.1c0.2,0,0.4-0.1,0.7-0.1c0.3-2-0.7-5.1,2.7-5.1c3.3,0,2.4,2.9,2.6,4.5
		c2.4,1.1,4.6,1.8,6.5,3c2.6,1.8,3.8,4.5,3.9,7.7c0.1,1.7-0.9,2.8-2.4,2.9c-1.5,0.1-2.6-0.9-2.8-2.6c-0.4-3.6-2.3-5.2-6-5.2
		c-1.6,0-3.2-0.1-4.7,0c-2.8,0.1-5,2.5-5,5.3c0,2.8,2.2,4.9,5.2,5.1c0-1.6,0-3.1,0-4.7c0-1.9,1.1-3.1,2.7-3c1.5,0,2.5,1.2,2.5,3
		c0,1.6,0,3.1,0,4.7c6.7,1.2,10.4,5,10.4,10.6C113,123.8,109.4,127.6,102.8,128.8z"/>
	<path d="M107.8,47.9c0,4.3-3.6,7.8-8,7.8c-4.3-0.1-7.7-3.6-7.7-7.9c0-4.3,3.6-7.8,8-7.8C104.4,40,107.9,43.6,107.8,47.9z
		 M100.1,51.1c1.7,0,3.2-1.5,3.2-3.2c0-1.8-1.5-3.3-3.3-3.3c-1.8,0-3.3,1.6-3.2,3.4C96.8,49.7,98.3,51.1,100.1,51.1z"/>
	<path d="M147.1,60.9c1.6,0,3.3,0,4.9,0c1.7,0,2.8,1.1,2.8,2.5c0,1.5-1.1,2.6-2.9,2.7c-3.3,0-6.6,0-9.9,0c-1.7,0-2.8-1.1-2.8-2.5
		c0-1.5,1.1-2.6,2.9-2.7C143.7,60.8,145.4,60.9,147.1,60.9z"/>
	<path d="M50.4,157.5c0,0.9,0.1,1.7,0,2.6c-0.1,1.5-1.2,2.5-2.5,2.5c-1.4,0-2.6-1-2.6-2.5c-0.1-1.8-0.1-3.6,0-5.4
		c0.1-1.5,1.2-2.5,2.5-2.5c1.4,0,2.5,1,2.7,2.5C50.5,155.6,50.4,156.6,50.4,157.5z"/>
	<path d="M63.5,157.4c0,0.9,0,1.7,0,2.6c-0.1,1.5-1.2,2.6-2.6,2.6c-1.4,0-2.5-1-2.5-2.5c-0.1-1.8-0.1-3.7,0-5.5
		c0.1-1.4,1.2-2.4,2.6-2.4c1.4,0,2.4,1,2.5,2.5C63.5,155.6,63.5,156.5,63.5,157.4C63.5,157.4,63.5,157.4,63.5,157.4z"/>
	<path d="M76.5,157.3c0,0.9,0,1.9,0,2.8c-0.1,1.5-1.2,2.6-2.6,2.6c-1.4,0-2.5-1.1-2.6-2.6c-0.1-1.7-0.1-3.5,0-5.2
		c0.1-1.5,1.2-2.6,2.6-2.6c1.4,0,2.5,1.1,2.6,2.6C76.6,155.6,76.5,156.4,76.5,157.3z"/>
	<path d="M89.6,157.4c0,0.9,0,1.7,0,2.6c-0.1,1.5-1.2,2.6-2.6,2.6c-1.4,0-2.5-1-2.5-2.5c-0.1-1.8-0.1-3.7,0-5.5
		c0.1-1.4,1.2-2.4,2.6-2.4c1.4,0,2.4,1,2.6,2.5c0,0.1,0,0.2,0,0.3C89.6,155.8,89.6,156.6,89.6,157.4
		C89.6,157.4,89.6,157.4,89.6,157.4z"/>
	<path d="M97.4,157.4c0-0.9,0-1.7,0-2.6c0.1-1.5,1.2-2.6,2.6-2.6c1.4,0,2.5,1,2.5,2.5c0.1,1.8,0.1,3.7,0,5.5
		c-0.1,1.4-1.2,2.4-2.6,2.4c-1.4,0-2.4-1-2.6-2.5c0-0.1,0-0.2,0-0.3C97.4,159,97.4,158.2,97.4,157.4
		C97.4,157.4,97.4,157.4,97.4,157.4z"/>
	<path d="M115.6,157.4c0,0.9,0.1,1.7,0,2.6c-0.1,1.5-1.2,2.6-2.6,2.5c-1.4,0-2.5-1-2.5-2.5c-0.1-1.8-0.1-3.6,0-5.4
		c0.1-1.5,1.2-2.6,2.6-2.5c1.4,0,2.4,1,2.5,2.5C115.7,155.6,115.6,156.5,115.6,157.4z"/>
	<path d="M123.5,157.4c0-0.9-0.1-1.9,0-2.8c0.1-1.4,1.2-2.4,2.6-2.4c1.4,0,2.5,1,2.6,2.5c0.1,1.8,0.1,3.7,0,5.5
		c-0.1,1.4-1.2,2.4-2.6,2.4c-1.4,0-2.4-1-2.6-2.5C123.4,159.2,123.5,158.3,123.5,157.4z"/>
	<path d="M141.7,157.4c0,0.9,0.1,1.9,0,2.8c-0.1,1.4-1.2,2.4-2.6,2.4c-1.4,0-2.5-1-2.6-2.4c-0.1-1.8-0.1-3.7,0-5.5
		c0.1-1.4,1.2-2.4,2.6-2.4c1.4,0,2.5,1,2.6,2.4C141.8,155.5,141.7,156.5,141.7,157.4z"/>
	<path d="M154.8,157.4c0,0.9,0.1,1.9,0,2.8c-0.1,1.4-1.3,2.4-2.6,2.4c-1.4,0-2.5-1-2.5-2.5c-0.1-1.8-0.1-3.7,0-5.5
		c0.1-1.4,1.2-2.4,2.6-2.4c1.4,0,2.4,1,2.6,2.5C154.8,155.6,154.8,156.5,154.8,157.4z"/>
</g>
</svg>
