<?xml version="1.0" encoding="utf-8"?>
<!-- Generator: Adobe Illustrator 22.1.0, SVG Export Plug-In . SVG Version: 6.00 Build 0)  -->
<svg version="1.1" id="Слой_1" xmlns="http://www.w3.org/2000/svg" xmlns:xlink="http://www.w3.org/1999/xlink" x="0px" y="0px"
	 viewBox="0 0 200 200" style="enable-background:new 0 0 200 200;" xml:space="preserve">
<g>
	<path d="M138.7,155.6c-24.9,0-49.5,0-74.4,0c0,1.6,0,3.2,0,4.7c0,3.7-2.2,5.8-5.9,5.9c-3.2,0-6.4,0-9.6,0c-3.5,0-5.7-2.2-5.7-5.7
		c0-1.5,0-3.1,0-4.9c-0.6,0-1.1,0-1.6,0c-3.8,0-7.6,0-11.5,0c-4.8,0-8.2-3.3-8.2-8.1c0-35.3,0-70.6,0-105.9c0-4.8,3.3-8.1,8.2-8.1
		c47.7,0,95.3,0,143,0c4.9,0,8.2,3.3,8.2,8.2c0,35.3,0,70.5,0,105.8c0,4.9-3.3,8.2-8.3,8.2c-4.3,0-8.5,0-13,0c0,1.7,0,3.3,0,4.9
		c0,3.5-2.2,5.7-5.7,5.7c-3.3,0-6.6,0-10,0c-3.4,0-5.6-2.2-5.6-5.6C138.7,159,138.7,157.4,138.7,155.6z M101.5,38.7
		c-23.5,0-46.9,0-70.4,0c-3.4,0-4,0.6-4,3.9c0,34.5,0,69.1,0,103.6c0,3.5,0.6,4.1,4,4.1c46.9,0,93.9,0,140.8,0c3.4,0,4-0.6,4-3.9
		c0-34.6,0-69.2,0-103.8c0-3.3-0.6-3.9-3.8-3.9C148.5,38.7,125,38.7,101.5,38.7z M154.5,160.8c0-1.8,0-3.5,0-5.1c-3.5,0-7,0-10.4,0
		c0,1.8,0,3.5,0,5.1C147.6,160.8,151,160.8,154.5,160.8z M58.8,160.8c0-1.9,0-3.5,0-5.2c-3.5,0-6.9,0-10.4,0c0,1.8,0,3.4,0,5.2
		C52,160.8,55.4,160.8,58.8,160.8z"/>
	<path d="M101.5,139.6c-18.3,0-36.5,0-54.8,0c-5.9,0-9-3.1-9-9c0-24.1,0-48.3,0-72.4c0-5.9,3.1-8.9,9-8.9c36.5,0,72.9,0,109.4,0
		c6.7,0,9.9,4.4,9,11.3c-0.2,1.4-1.2,2.1-2.6,2c-1.4,0-2.3-0.7-2.5-2.1c-0.1-0.9-0.1-1.8-0.1-2.7c0-2.3-0.9-3.1-3.1-3.2
		c-0.3,0-0.7,0-1,0c-36.3,0-72.5,0-108.8,0c-3.5,0-4.1,0.6-4.1,4c0,23.9,0,47.8,0,71.7c0,3.4,0.6,4,3.9,4c36.4,0,72.7,0,109.1,0
		c3.2,0,3.9-0.6,3.9-3.9c0-0.7-0.1-1.3,0.1-2c0.3-1.4,1.2-2.1,2.6-2.1c1.3,0,2.4,0.6,2.5,1.9c0.3,2.4,0.4,4.9-0.8,7.1
		c-1.6,2.9-4.1,4.2-7.4,4.2c-11.6,0-23.1,0-34.7,0C115.3,139.6,108.4,139.6,101.5,139.6z"/>
	<path d="M101.4,67.9c14.6,0,26.6,12,26.6,26.6c0,14.6-12,26.5-26.5,26.5c-14.6,0-26.6-12-26.6-26.6C74.9,79.9,86.9,67.9,101.4,67.9
		z M123.3,93.9c-0.5-12.1-10.6-21.7-22.3-21.2c-12.2,0.5-21.8,10.7-21.3,22.4c0.6,12.1,10.7,21.7,22.4,21.2
		C114.2,115.7,123.8,105.6,123.3,93.9z"/>
	<path d="M154.6,75.7c0-1.7,0-3.4,0-5.1c0.1-3,2.3-5.2,5.3-5.3c1.8,0,3.7-0.1,5.5,0c2.9,0.1,5.1,2.3,5.2,5.2c0.1,3.6,0.1,7.2,0,10.8
		c-0.1,2.9-2.3,5.1-5.2,5.2c-1.9,0.1-3.8,0.1-5.6,0c-2.8-0.1-5-2.3-5.1-5.1C154.6,79.5,154.6,77.6,154.6,75.7z M160.1,70.6
		c0,3.6,0,7.1,0,10.5c1.8,0,3.4,0,5.1,0c0-3.5,0-7,0-10.5C163.4,70.6,161.8,70.6,160.1,70.6z"/>
	<path d="M170.6,113.2c0,1.7,0,3.4,0,5.1c-0.1,3-2.2,5.3-5.2,5.3c-1.8,0.1-3.7,0.1-5.5,0c-2.9-0.1-5.2-2.3-5.2-5.2
		c-0.1-3.6-0.1-7.2,0-10.8c0-3,2.3-5.2,5.3-5.3c1.8,0,3.5,0,5.3,0c3,0.1,5.2,2.3,5.3,5.3C170.6,109.5,170.6,111.4,170.6,113.2z
		 M165.1,118.3c0-3.6,0-7,0-10.4c-1.8,0-3.5,0-5.1,0c0,3.5,0,6.9,0,10.4C161.7,118.3,163.4,118.3,165.1,118.3z"/>
	<path d="M53.7,94.5c0,7,0,13.9,0,20.9c0,2-1,3.1-2.7,3c-1.4-0.1-2.3-0.8-2.5-2.2c-0.1-0.3,0-0.7,0-1c0-13.8,0-27.6,0-41.5
		c0-2.1,1-3.2,2.7-3.2c1.7,0,2.6,1.1,2.6,3.2c0,6.6,0,13.2,0,19.7C53.7,93.8,53.7,94.1,53.7,94.5z"/>
	<path d="M165.2,94.5c0,0.9,0.1,1.9,0,2.8c-0.1,1.5-1.1,2.4-2.6,2.5c-1.5,0-2.6-0.9-2.7-2.5c-0.1-1.9-0.1-3.8,0-5.6
		c0.1-1.5,1.1-2.4,2.6-2.5c1.5,0,2.6,0.9,2.7,2.5C165.3,92.6,165.2,93.6,165.2,94.5z"/>
	<path d="M108.7,99.3c2,0,6.7,4.5,6.5,6c-0.1,0.8-0.7,1.9-1.3,2.2c-0.7,0.4-2,0.4-2.6,0c-1.6-1.2-3.1-2.7-4.3-4.3
		c-0.4-0.6-0.4-1.9-0.1-2.6C107.3,100,108.3,99.6,108.7,99.3z"/>
	<path d="M96.6,101.9c-0.2,0.6-0.2,1-0.3,1.1c-1.7,1.7-3.3,3.5-5.1,5c-0.5,0.4-2.1-0.2-2.8-0.9c-0.9-0.8-0.9-2.1-0.1-3
		c1.3-1.4,2.6-2.9,4.1-4c0.6-0.5,1.9-0.5,2.7-0.1C95.7,100.3,96.1,101.3,96.6,101.9z"/>
	<path d="M109,89.3c-0.6-0.5-1.6-1-1.9-1.8c-0.3-0.7-0.2-2,0.3-2.6c1.1-1.5,2.5-2.8,3.9-4c1-0.9,2.2-0.8,3.2,0.1
		c1,0.8,1.4,2.1,0.7,3.1c-1.4,1.7-3.1,3.2-4.7,4.8C110.2,89.1,109.8,89.1,109,89.3z"/>
	<path d="M96.6,86.8c-0.5,0.6-1,1.6-1.8,1.9c-0.7,0.3-2,0.2-2.5-0.3c-1.5-1.1-2.8-2.5-4-3.9c-0.9-1-0.8-2.3,0.1-3.3
		c0.9-1,2.1-1.3,3.1-0.5c1.6,1.3,3.1,3,4.6,4.5C96.3,85.6,96.4,86.1,96.6,86.8z"/>
	<path d="M115.1,97.1c-0.8,0-1.7,0-2.5,0c-1.6-0.1-2.6-1.1-2.5-2.7c0-1.6,0.9-2.6,2.6-2.6c1.7-0.1,3.3-0.1,5,0
		c1.5,0.1,2.5,1.1,2.5,2.6c0,1.5-0.9,2.6-2.5,2.7C116.7,97.2,115.9,97.1,115.1,97.1z"/>
	<path d="M104.1,107.5c0,0.8,0,1.5,0,2.3c-0.1,1.7-1.1,2.7-2.7,2.7c-1.6,0-2.5-1-2.6-2.6c-0.1-1.6-0.1-3.2,0-4.8
		c0.1-1.6,1.1-2.6,2.6-2.6c1.5,0,2.6,0.9,2.7,2.6C104.2,105.8,104.1,106.7,104.1,107.5C104.1,107.5,104.1,107.5,104.1,107.5z"/>
	<path d="M87.9,97.1c-0.8,0-1.7,0.1-2.5,0c-1.5-0.1-2.5-1.1-2.5-2.6c0-1.5,0.9-2.6,2.5-2.7c1.7-0.1,3.3-0.1,5,0
		c1.6,0.1,2.5,1.1,2.5,2.7c0,1.6-0.9,2.5-2.6,2.6C89.5,97.2,88.7,97.1,87.9,97.1C87.9,97.1,87.9,97.1,87.9,97.1z"/>
	<path d="M104.1,80.9c0,0.8,0,1.7,0,2.5c-0.1,1.7-1.1,2.6-2.6,2.6c-1.6,0-2.6-0.9-2.6-2.6c-0.1-1.7-0.1-3.3,0-5
		c0.1-1.6,1.2-2.6,2.7-2.5c1.5,0,2.4,0.9,2.6,2.5C104.2,79.2,104.1,80,104.1,80.9C104.1,80.9,104.1,80.9,104.1,80.9z"/>
</g>
</svg>
