<?xml version="1.0" encoding="utf-8"?>
<!-- Generator: Adobe Illustrator 22.1.0, SVG Export Plug-In . SVG Version: 6.00 Build 0)  -->
<svg version="1.1" id="Слой_1" xmlns="http://www.w3.org/2000/svg" xmlns:xlink="http://www.w3.org/1999/xlink" x="0px" y="0px"
	 viewBox="0 0 200 200" style="enable-background:new 0 0 200 200;" xml:space="preserve">
<g>
	<path d="M134.7,176.6c-21.6,0-43.3,0-64.9,0c-0.2-0.1-0.3-0.2-0.5-0.3c-3.4-1.2-5.2-3.7-5.2-7.3c0-2.3,0-4.6,0-6.8c0-1.5,0-3,0-4.6
		c-0.7,0-1.3,0-1.8,0c-9.5,0-18.9,0-28.4,0c-0.7,0-1.5,0-2.2-0.2c-3-0.6-4.7-2.8-5.7-5.5c0-1,0-2,0-3c0.8-1.8,1.6-3.7,3.5-4.6
		c1.1-0.5,1.2-1.3,1.2-2.3c0-33.5,0-67.1,0-100.6c0-7.4,5.1-12.5,12.4-12.5c39.4,0,78.8,0,118.2,0c1.2,0,2.5,0.1,3.7,0.5
		c5.4,1.5,8.7,6.1,8.7,12.1c0,32.8,0,65.7,0,98.5c0,2.1,0,3.8,2.2,5.1c2.6,1.6,3.2,4.9,2.1,7.7c-1.1,2.8-3.7,4.7-6.8,4.7
		c-9.7,0-19.4,0-29.2,0c-0.5,0-1.1,0-1.7,0c0,2.2,0,4.2,0,6.2c0,1.7,0,3.4,0,5.1C140.5,172.9,138.3,175.3,134.7,176.6z M168.9,143.2
		c0-0.7,0-1.2,0-1.6c0-33.2,0-66.5,0-99.7c0-5.3-2.8-8.1-8-8.1c-39.1,0-78.2,0-117.3,0c-5.2,0-8,2.8-8,8c0,33.3,0,66.6,0,99.9
		c0,0.5,0,1.1,0,1.6c9.6,0,19.1,0,28.5,0c0-4.8,0-9.5,0-14.3c-2.8,0-5.6,0.3-8.3-0.1c-5.1-0.6-8.6-5.1-8.2-10.1
		c0.4-5,4.5-8.8,9.7-8.8c29.9,0,59.8,0,89.8,0c5.8,0,10,4.1,10,9.5c0,5.4-4.3,9.5-10,9.5c-2.2,0-4.3,0-6.5,0c0,4.8,0,9.5,0,14.2
		C150,143.2,159.4,143.2,168.9,143.2z M68.9,114.7c0,0.6,0,1.1,0,1.6c0,17.4,0,34.7,0,52.1c0,2.7,0.7,3.4,3.4,3.4
		c19.9,0,39.9,0,59.8,0c2.7,0,3.4-0.7,3.4-3.4c0-17.4,0-34.7,0-52.1c0-0.5,0-1,0-1.6c-3.5,0-6.8,0-10,0c0.2,1.6,0.4,3.1,0.6,4.7
		c0.8,0,1.5,0,2.2,0c1.4,0.1,2.4,1,2.5,2.3c0,1.3-1,2.4-2.4,2.4c-0.9,0-1.9,0-2.8,0c-3.9,11-12,16.6-23.3,16.6
		c-11.4,0-19.5-5.5-23.4-16.6c-0.9,0-1.9,0.1-2.9,0c-1.3-0.1-2.3-1.1-2.3-2.3c0-1.3,0.9-2.3,2.3-2.4c0.8-0.1,1.6,0,2.3,0
		c0.2-1.7,0.4-3.2,0.6-4.7C75.6,114.7,72.3,114.7,68.9,114.7z M102.3,114.7c-5.6,0-11.2,0.1-16.8,0c-1.3,0-1.7,0.4-2,1.6
		c-0.9,4.2-0.1,8.1,2.3,11.6c5.8,8.5,18.5,10.9,27.6,5.1c5.9-3.8,8.7-9.9,7.6-16.3c-0.3-1.5-0.8-2-2.4-2
		C113.2,114.7,107.7,114.7,102.3,114.7z M64,152.8c0-1.7,0-3.2,0-4.8c-10.3,0-20.4,0-30.6,0c-0.2,0-0.4,0-0.6,0
		c-1.3,0.3-2,1.1-2,2.4c0,1.2,0.8,2,1.9,2.3c0.5,0.1,1,0.1,1.5,0.1c8.4,0,16.8,0,25.3,0C61,152.8,62.5,152.8,64,152.8z M140.5,148
		c0,1.7,0,3.2,0,4.8c6.6,0,13,0,19.4,0c3.7,0,7.4,0,11.1,0c1.7,0,2.8-1.2,2.6-2.7c-0.2-1.3-1.2-2.1-2.8-2.1c-6.5,0-13,0-19.5,0
		C147.8,148,144.2,148,140.5,148z M140.4,124.2c2.3,0,4.4,0,6.6,0c0.3,0,0.7,0,1,0c2.3-0.3,4.2-2.3,4.2-4.7c0-2.3-1.7-4.6-4.1-4.7
		c-2.5-0.2-5.1,0-7.8,0C140.4,117.9,140.4,120.9,140.4,124.2z M64,124.2c0-3.3,0-6.3,0-9.5c-0.6,0-1,0-1.5,0c-2,0-4.1-0.1-6.1,0.1
		c-2.3,0.2-4.2,2.3-4.2,4.6c0,2.4,1.8,4.6,4.2,4.8C58.9,124.3,61.5,124.2,64,124.2z"/>
	<path d="M102.2,100.4c-10.9,0-21.7,0-32.6,0c-3.6,0-5.5-1.9-5.5-5.5c0-13.8,0-27.7,0-41.5c0-3.5,1.9-5.4,5.4-5.4
		c21.8,0,43.6,0,65.3,0c3.5,0,5.4,1.9,5.4,5.4c0,13.8,0,27.7,0,41.5c0,3.6-1.9,5.5-5.5,5.5C124,100.4,113.1,100.4,102.2,100.4z
		 M69,95.5c22.3,0,44.4,0,66.5,0c0-14.3,0-28.5,0-42.7c-22.2,0-44.3,0-66.5,0C69,67.1,69,81.2,69,95.5z"/>
	<path d="M152.3,48c5.4-0.4,7.2,1.8,7.2,7.2c0,5.4-1.8,7.2-7.2,7.2c-5.3,0-7.3-1.6-7.3-7.3C145,49.9,146.7,47.5,152.3,48z
		 M154.6,57.4c0-1.6,0-3.1,0-4.6c-1.6,0-3.1,0-4.6,0c0,1.6,0,3.1,0,4.6C151.6,57.4,153,57.4,154.6,57.4z"/>
	<path d="M52.2,67c5.5-0.4,7.3,1.7,7.3,7.2c0,5.3-1.9,7.5-7.1,7.1c-0.9-0.1-1.8,0-2.7,0c-2.5-0.1-4.5-2.1-4.5-4.6
		c-0.1-1.6,0-3.2,0-4.8c0-2.8,2.1-4.8,4.9-4.9C50.7,67,51.4,67,52.2,67z M49.9,76.5c1.6,0,3.1,0,4.6,0c0-1.6,0-3.1,0-4.6
		c-1.6,0-3,0-4.6,0C49.9,73.4,49.9,74.9,49.9,76.5z"/>
	<path d="M159.4,74.2c0.4,5.4-1.7,7.2-7.1,7.2c-5.3,0-7.3-1.6-7.3-7.3c0-5.3,1.9-7.1,7.2-7.2C157.9,66.9,159.8,68.9,159.4,74.2z
		 M154.6,71.9c-1.6,0-3.1,0-4.6,0c0,1.6,0,3,0,4.6c1.6,0,3.1,0,4.6,0C154.6,74.9,154.6,73.5,154.6,71.9z"/>
	<path d="M52.2,100.4c-5.2,0.4-7.2-1.6-7.2-7.2c0-5.4,1.9-7.2,7.2-7.2c5.5,0,7.3,1.8,7.3,7.3C59.4,98.5,57.8,100.8,52.2,100.4z
		 M49.9,95.5c1.7,0,3.2,0,4.6,0c0-1.6,0-3,0-4.6c-1.6,0-3.1,0-4.6,0C49.9,92.5,49.9,94,49.9,95.5z"/>
	<path d="M159.4,93.3c0.4,5.4-1.7,7.2-7.1,7.2c-5.4,0-7.3-1.8-7.3-7.2c0-5.4,1.8-7.3,7.3-7.3C157.7,86,159.9,87.8,159.4,93.3z
		 M150,90.9c0,1.7,0,3.2,0,4.6c1.6,0,3,0,4.6,0c0-1.6,0-3.1,0-4.6C153,90.9,151.5,90.9,150,90.9z"/>
	<path d="M52.2,62.3c-5.3,0.4-7.2-1.7-7.2-7.1c0-5.5,1.9-7.2,7.2-7.3c5.5,0,7.3,1.9,7.3,7.3C59.4,60.4,57.7,62.7,52.2,62.3z
		 M49.9,52.8c0,1.6,0,3.1,0,4.6c1.6,0,3.1,0,4.6,0c0-1.6,0-3.1,0-4.6C52.9,52.8,51.4,52.8,49.9,52.8z"/>
	<path d="M111.8,157.6c0,5.2-4.4,9.5-9.6,9.5c-5.2,0-9.5-4.4-9.4-9.7c0.1-5.2,4.3-9.4,9.5-9.4C107.5,148,111.8,152.3,111.8,157.6z
		 M102.2,163.1c3,0,5.6-2.5,5.6-5.5c0-3-2.5-5.6-5.6-5.6c-3,0-5.5,2.5-5.6,5.5C96.6,160.5,99.1,163.1,102.2,163.1z"/>
	<path d="M78.4,161.2c0,1.1,0,2.2,0,3.3c-0.1,1.5-1,2.5-2.3,2.6c-1.4,0-2.4-1-2.4-2.5c0-2.3,0-4.6,0-6.8c0-1.5,1-2.5,2.3-2.6
		c1.4,0,2.4,1,2.4,2.6C78.4,159,78.4,160.1,78.4,161.2z"/>
	<path d="M130.8,161.2c0,1.1,0,2.3,0,3.4c-0.1,1.4-1,2.4-2.3,2.4c-1.3,0-2.4-1-2.4-2.5c0-2.3,0-4.7,0-7c0-1.4,1-2.4,2.3-2.4
		c1.3,0,2.3,1,2.4,2.5c0,0.1,0,0.2,0,0.3C130.8,159,130.8,160.1,130.8,161.2C130.8,161.2,130.8,161.2,130.8,161.2z"/>
	<path d="M125.9,136.1c-0.7,0-1.5,0-2.2,0c-1.4-0.1-2.4-1-2.4-2.3c0-1.3,0.9-2.3,2.3-2.4c1.6-0.1,3.2-0.1,4.8,0c1.4,0,2.4,1,2.4,2.3
		c0,1.4-1,2.3-2.5,2.4C127.5,136.1,126.7,136.1,125.9,136.1z"/>
	<path d="M78.4,148c-0.8,0-1.6,0-2.4,0c-1.4-0.1-2.4-1.1-2.3-2.4c0-1.2,0.9-2.3,2.3-2.3c1.6-0.1,3.3-0.1,4.9,0
		c1.4,0.1,2.4,1.1,2.3,2.4c0,1.3-1,2.3-2.4,2.3C80,148.1,79.2,148,78.4,148z"/>
	<path d="M126.2,143.3c0.7,0,1.5,0,2.2,0c1.4,0.1,2.4,1.1,2.4,2.4c0,1.2-0.9,2.3-2.2,2.3c-1.7,0.1-3.4,0.1-5.1,0
		c-1.3-0.1-2.2-1.1-2.2-2.4c0-1.2,0.9-2.2,2.2-2.3C124.4,143.2,125.3,143.3,126.2,143.3C126.2,143.3,126.2,143.3,126.2,143.3z"/>
	<path d="M78.5,131.4c0.8,0,1.6-0.1,2.4,0c1.3,0.1,2.2,1.1,2.2,2.3c0,1.2-0.9,2.3-2.2,2.4c-1.7,0.1-3.4,0.1-5.1,0
		c-1.3-0.1-2.2-1.1-2.2-2.3c0-1.2,0.9-2.2,2.2-2.4c0.1,0,0.2,0,0.3,0C77,131.4,77.8,131.4,78.5,131.4
		C78.5,131.4,78.5,131.4,78.5,131.4z"/>
</g>
</svg>
