<svg id="Capa_1" enable-background="new 0 0 512 512"  viewBox="0 0 512 512" xmlns="http://www.w3.org/2000/svg"><g><path d="m489.95 363.9h-3.31c-2.14-7.47-5.1-14.67-8.85-21.51l2.4-2.42c6.3-6.36 6.3-16.69 0-23.05l-17.32-17.47c-1.53-1.55-3.32-2.75-5.27-3.56s-4.06-1.24-6.24-1.24c-4.36 0-8.45 1.7-11.52 4.8l-2.33 2.35c-6.74-3.76-13.85-6.73-21.22-8.88v-3.42c0-9-7.29-16.33-16.24-16.33h-5.09c-6.12-34.57-21.68-67.05-45.3-93.81-2.74-3.11-7.48-3.41-10.59-.66-3.1 2.74-3.4 7.48-.66 10.58 21.18 24 35.34 53 41.29 83.89h-4.15c-8.95 0-16.24 7.33-16.24 16.33v3.42c-7.38 2.14-14.5 5.11-21.25 8.88l-2.33-2.35c-1.53-1.55-3.32-2.75-5.27-3.56s-4.06-1.24-6.24-1.24c-4.37 0-8.46 1.7-11.52 4.8l-2.06 2.08c-11.01-4.14-22.47-7.16-33.22-10-2.5-.66-4.99-1.31-7.45-1.98-7.86-2.12-11.81-11.66-14.42-18.58 38.03-23.36 66.95-66.25 66.95-103.38v-34.17c0-40.47-13-74.72-37.59-99.05-21.88-21.65-51.34-33.85-82.96-34.37h-.24c-31.61.52-61.06 12.72-82.93 34.37-24.59 24.33-37.59 58.58-37.59 99.05v34.17c0 37.13 28.92 80.02 66.95 103.37-2.61 6.9-6.56 16.47-14.42 18.59-2.45.66-4.93 1.32-7.43 1.97-40.08 10.57-89.97 23.72-89.97 87.12l.082.417c-.027-.06-.055-.118-.082-.178-9.98-22.12-15.52-46.61-15.52-72.34 0-42.99 15.7-84.52 44.2-116.95 2.74-3.11 2.43-7.85-.68-10.59-3.11-2.73-7.85-2.43-10.58.68-30.91 35.181-47.94 80.231-47.94 126.861 0 38.54 11.46 74.5 31.2 104.71.41.64.84 1.28 1.27 1.92 35.12 52.39 95.32 87.01 163.56 87.01 36.05 0 69.86-9.66 98.91-26.49l11.96 12.07c3.06 3.09 7.15 4.79 11.52 4.79 4.36 0 8.45-1.7 11.52-4.81l2.32-2.35c6.75 3.77 13.86 6.74 21.25 8.89v3.39c0 9.01 7.29 16.33 16.24 16.33h24.5c8.95 0 16.24-7.32 16.24-16.33v-3.39c7.38-2.15 14.48-5.12 21.22-8.89l2.33 2.37c3.07 3.09 7.16 4.79 11.52 4.79s8.45-1.7 11.51-4.79l17.32-17.48c6.3-6.36 6.3-16.69.01-23.04l-2.41-2.44c3.75-6.83 6.72-14.04 8.85-21.53h3.31c8.96 0 16.25-7.32 16.25-16.33v-24.71c0-9-7.29-16.33-16.25-16.33zm-288.12-348.9c49.08.86 101.72 35.66 105.46 109.91-14.63-2.73-21.43-9.58-28.04-16.24-6.4-6.45-13.49-13.59-26.19-13.59-3.13 0-6.61.43-10.5 1.42-5.75 1.46-10.65 2.76-14.9 3.88-13.21 3.48-19.84 5.23-25.83 5.23s-12.63-1.75-25.85-5.24c-4.24-1.12-9.12-2.41-14.86-3.87-19.65-4.99-28.71 4.13-36.69 12.17-6.61 6.66-13.42 13.51-28.03 16.24 3.74-74.25 56.37-109.05 105.43-109.91zm-105.64 152.59v-27.44c21.27-3.18 31.34-13.31 38.88-20.91 7.33-7.38 11.01-11.08 22.36-8.2 5.68 1.44 10.52 2.72 14.72 3.83 14.48 3.82 21.74 5.74 29.68 5.74 7.93 0 15.19-1.91 29.65-5.73 4.22-1.11 9.08-2.39 14.78-3.84 11.35-2.88 15.02.82 22.34 8.19 7.55 7.6 17.61 17.74 38.9 20.92v27.44c0 37.92-37.34 84.84-79.9 100.42-18.77 6.87-32.73 6.87-51.51 0-42.56-15.58-79.9-62.5-79.9-100.42zm41.44 136.45c14.03-3.79 20.33-16.98 23.82-25.9 3.12 1.46 6.28 2.78 9.48 3.95 11.13 4.07 21.02 6.11 30.92 6.11 9.89 0 19.79-2.04 30.91-6.11 3.19-1.17 6.35-2.48 9.47-3.94 3.49 8.93 9.8 22.1 23.84 25.89.657.177 1.322.353 1.983.53l-54.635 31.647c-.094.055-.187.111-.279.17-9.5 6.07-13.093 6.07-22.623-.004-.089-.057-.179-.112-.271-.165l-54.614-31.648c.664-.176 1.336-.354 1.999-.53zm157.75 141.19c-4.41 4.46-5.73 10.87-3.94 16.5-26.44 14.92-57.03 23.45-89.61 23.45-62.67 0-118.01-31.59-150.51-79.48v-27.06c0-45.401 29.361-58.779 63.874-68.577l67.397 39.056c7.103 4.507 13.178 6.759 19.252 6.759 6.073 0 12.144-2.254 19.231-6.761l67.399-39.04c3.573 1.015 7.103 2.06 10.537 3.183l-3.63 3.66c-6.29 6.36-6.29 16.69.01 23.06l2.41 2.42c-3.76 6.82-6.73 14.02-8.86 21.5h-3.29c-8.97 0-16.27 7.33-16.27 16.33v24.71c0 9.01 7.3 16.33 16.27 16.33h3.28c2.14 7.5 5.11 14.71 8.87 21.52zm195.82-40.29c0 .72-.57 1.33-1.25 1.33h-9.14c-3.52 0-6.56 2.44-7.32 5.87-2.21 9.89-6.05 19.25-11.44 27.84-1.85 2.95-1.43 6.78 1.01 9.25l6.48 6.56c.5.51.5 1.42-.01 1.93l-17.31 17.48c-.29.29-.63.35-.86.35-.24 0-.57-.06-.85-.34l-6.46-6.55c-2.49-2.52-6.4-2.96-9.38-1.05-8.5 5.44-17.77 9.33-27.54 11.55-3.42.78-5.84 3.81-5.84 7.31v9.2c0 .72-.57 1.33-1.24 1.33h-24.5c-.68 0-1.24-.59-1.24-1.33v-9.2c0-3.5-2.42-6.53-5.84-7.31-9.79-2.22-19.06-6.11-27.57-11.55-1.24-.79-2.64-1.18-4.04-1.18-1.95 0-3.89.76-5.34 2.23l-6.45 6.54c-.28.29-.62.35-.86.35-.23 0-.57-.06-.85-.35l-9.64-9.73-7.68-7.75c-.5-.51-.5-1.42 0-1.93l6.48-6.55c.79-.8 1.38-1.75 1.73-2.76.76-2.11.55-4.51-.71-6.51-5.39-8.56-9.25-17.92-11.45-27.83-.77-3.43-3.81-5.87-7.32-5.87h-9.12c-.69 0-1.27-.61-1.27-1.33v-24.71c0-.71.59-1.33 1.27-1.33h9.12c3.51 0 6.55-2.43 7.31-5.86 2.21-9.88 6.07-19.25 11.47-27.84 1.86-2.96 1.43-6.81-1.04-9.28l-6.47-6.51c-.5-.5-.5-1.42 0-1.93l8.29-8.37 9.03-9.11c.29-.29.62-.35.85-.35.24 0 .57.06.86.35l6.46 6.52c2.42 2.44 6.17 2.93 9.12 1.2.08-.05.16-.1.24-.15 8.53-5.43 17.81-9.31 27.58-11.53 3.42-.77 5.84-3.81 5.84-7.31v-9.23c0-.72.57-1.33 1.24-1.33h24.5c.66 0 1.24.62 1.24 1.33v9.23c0 3.5 2.42 6.53 5.84 7.31 9.75 2.22 19.02 6.1 27.55 11.53 2.98 1.9 6.88 1.46 9.36-1.05l6.46-6.52c.29-.29.62-.35.86-.35.23 0 .57.06.86.35l17.32 17.48c.5.51.5 1.43-.01 1.93l-6.45 6.52c-2.45 2.47-2.88 6.3-1.04 9.25 5.39 8.63 9.24 18 11.45 27.86.76 3.43 3.8 5.86 7.32 5.86h9.14c.66 0 1.25.62 1.25 1.33z"/><path d="m396.6 328.81c-4.99-.71-10.07-.79-15.08-.31-8.7.85-17.03 3.46-24.57 7.67-4.36 2.43-8.46 5.39-12.21 8.85-.73.67-1.45 1.36-2.15 2.07-2.91 2.94-2.89 7.69.05 10.61 2.07 2.05 5.04 2.65 7.64 1.79 1.09-.36 2.11-.97 2.97-1.84 3.01-3.04 6.34-5.63 9.91-7.74 4.85-2.87 10.16-4.86 15.72-5.89 5.06-.96 10.3-1.08 15.4-.39 10.58 1.41 20.36 6.26 28.04 14.02 19.09 19.26 19.09 50.62 0 69.9-9.21 9.3-21.48 14.42-34.53 14.42-12.67 0-24.59-4.82-33.7-13.58-3.72-3.59-6.87-7.78-9.3-12.35-5.01-9.44-6.95-20.42-5.26-31.22.64-4.1-2.16-7.93-6.26-8.57-4.09-.65-7.92 2.16-8.56 6.25-2.49 15.96 1.11 32.24 9.75 45.53 2.75 4.22 6 8.13 9.67 11.58 11.87 11.22 27.29 17.36 43.66 17.36 17.09 0 33.14-6.69 45.19-18.86 24.85-25.11 24.85-65.94 0-91.02-9.97-10.06-22.65-16.39-36.38-18.28z"/><path d="m203.688 239.649c10.023 0 19.446-3.938 26.532-11.089 2.916-2.942 2.894-7.691-.048-10.606-2.943-2.915-7.691-2.894-10.607.048-4.248 4.287-9.886 6.647-15.877 6.647s-11.629-2.36-15.877-6.647c-2.917-2.941-7.665-2.963-10.607-.048s-2.964 7.664-.048 10.606c7.086 7.151 16.509 11.089 26.532 11.089z"/><path d="m182.363 167.524c2.894-2.963 2.838-7.712-.125-10.605-9.953-9.722-26.175-9.726-36.161-.011-2.969 2.888-3.035 7.637-.146 10.605 1.47 1.512 3.422 2.271 5.376 2.271 1.885 0 3.771-.706 5.229-2.124 4.208-4.094 11.036-4.097 15.222-.011 2.962 2.894 7.71 2.84 10.605-.125z"/><path d="m235.62 167.649c4.186-4.087 11.014-4.084 15.222.011 1.458 1.418 3.344 2.124 5.229 2.124 1.954 0 3.906-.759 5.376-2.271 2.888-2.969 2.823-7.718-.146-10.605-9.986-9.715-26.209-9.71-36.161.011-2.963 2.894-3.02 7.643-.125 10.605 2.893 2.964 7.642 3.02 10.605.125z"/></g></svg>