<?xml version="1.0" encoding="utf-8"?>
<!-- Generator: Adobe Illustrator 22.1.0, SVG Export Plug-In . SVG Version: 6.00 Build 0)  -->
<svg version="1.1" id="Слой_1" xmlns="http://www.w3.org/2000/svg" xmlns:xlink="http://www.w3.org/1999/xlink" x="0px" y="0px"
	 viewBox="0 0 200 200" style="enable-background:new 0 0 200 200;" xml:space="preserve">
<g>
	<path d="M46.9,194c-2.3-0.7-4-2.2-5.7-3.9c-7.8-7.9-15.7-15.7-23.5-23.5c-4.3-4.3-4.2-9.3,0.5-13.2c5.5-4.6,10.8-9.3,14.7-15.5
		c4.4-6.9,6.6-14.4,7.9-22.4c1.1-6.9,2.5-13.7,3.7-20.6c1.1-5.7,3.8-10.5,8.2-14.3C59.2,75,65.6,69.4,72,63.7
		c0.8-0.7,1.2-1.4,1.2-2.5c0-9.6,0-19.2,0-28.8c0-5.5,3.2-8.8,8.8-8.8c24.3,0,48.7,0,73,0c5.4,0,8.7,3.3,8.7,8.7
		c0,38.5,0,77.1,0,115.6c0,5.5-3.3,8.8-8.8,8.8c-18.9,0-37.7,0-56.6,0c-1.1,0-1.9,0.3-2.8,1c-14,11.5-27.9,22.9-41.9,34.3
		c-1,0.8-2.4,1.3-3.6,1.9C48.9,194,47.9,194,46.9,194z M101.7,151.3c0.6,0.1,0.8,0.1,1.1,0.1c17.5,0,34.9,0,52.4,0
		c2.3,0,3.2-1,3.2-3.5c0-38.5,0-76.9,0-115.4c0-2.6-0.9-3.5-3.5-3.5c-24.3,0-48.7,0-73,0c-2.5,0-3.4,0.9-3.4,3.4c0,30,0,60.1,0,90.1
		c0,0.4,0.1,0.8,0.1,1.3c3.1-1.5,5.5-3.4,7.6-5.8c3.5-4.1,7.1-8.1,10.6-12.2c4.2-4.9,9.5-7.1,15.9-6.7c6,0.3,9.5,5.4,7.5,11.1
		c-1,3-2.1,6-3.2,8.9C112.8,130.1,110.1,141.9,101.7,151.3z M73.2,69.9c-0.4,0.3-0.6,0.4-0.7,0.5c-5.6,4.9-11.2,9.8-16.7,14.8
		c-3.1,2.8-5,6.3-5.8,10.4c-1.4,7.4-2.8,14.8-4,22.2c-1.6,9.8-5.1,18.9-11.2,26.8c-1.3,1.7-2.7,3.3-3.8,4.6c0.6,1.2,1.4,2,1.5,3
		c0.2,1.6-4.7,6.6-6.3,6.3c-1.1-0.2-2.1-1.2-3.3-2c0,0-0.3,0.2-0.6,0.5c-2.8,2.4-2.9,3.4-0.3,6c8,8,16.1,16.1,24.1,24.1
		c1.9,1.9,2.9,1.9,4.9,0.3c0.5-0.4,1-0.8,1.5-1.3c-1.2-1.8-0.7-3.2,0.7-4.5c0.7-0.6,1.3-1.2,1.9-1.9c2.5-2.5,3-2.6,5.8-0.6
		c0.2-0.1,0.4-0.2,0.5-0.4c9.9-8.1,19.9-16.3,29.8-24.5c6-5,10.9-11,13.8-18.2c3.7-9.2,7-18.7,10.3-28c0.7-2-0.5-3.5-2.6-3.7
		c-4.8-0.4-8.7,1.2-11.8,4.8c-3.4,3.8-6.7,7.7-10,11.6c-2.9,3.3-6.1,6.3-10.2,7.9c-4.6,1.7-9.4,3-14.1,4.3c-1.4,0.4-2.8-0.5-3.1-1.9
		c-0.4-1.5,0.3-2.8,1.8-3.3c2.1-0.6,4.3-1.2,6.4-1.7c1.2-0.2,1.4-0.8,1.4-1.9c0-11.6,0-23.3,0-34.9C73.2,83,73.2,76.6,73.2,69.9z"/>
	<path d="M153,101c0,13.7,0,27.4,0,41.1c0,0.6,0.1,1.1,0,1.7c-0.3,1.4-1.1,2.3-2.6,2.3c-1.5,0-2.4-0.9-2.6-2.3c-0.1-0.5,0-1,0-1.5
		c0-27.6,0-55.2,0-82.8c0-0.5,0-1,0-1.5c0.3-1.4,1.1-2.3,2.6-2.3c1.5,0,2.4,0.9,2.6,2.3c0.1,0.5,0,1.1,0,1.7
		C153,73.4,153,87.2,153,101z"/>
	<path d="M147.7,42.3c0-1.7,0-3.4,0-5.2c0-1.7,1.1-2.8,2.6-2.8c1.5,0,2.6,1.1,2.7,2.8c0,3.4,0,6.9,0,10.3c0,1.7-1.1,2.8-2.6,2.8
		c-1.5,0-2.6-1.1-2.7-2.8C147.6,45.7,147.7,44,147.7,42.3z"/>
	<path d="M41.9,161.2c-0.1,2.1-4.7,7-6.3,6.8c-0.9-0.1-2-0.7-2.4-1.4c-0.4-0.7-0.3-2.1,0.2-2.7c1.2-1.6,2.6-3,4.2-4.2
		c0.6-0.5,2-0.6,2.7-0.3C41.1,159.8,41.5,160.8,41.9,161.2z"/>
	<path d="M44.6,177.7c-0.6-0.5-1.6-0.9-2-1.6c-0.4-0.7-0.4-2,0-2.6c1.3-1.7,2.9-3.2,4.5-4.6c1-0.9,2.3-0.7,3.3,0.3
		c0.9,0.9,1.2,2.2,0.3,3.2c-1.4,1.6-3,3.1-4.5,4.6C45.9,177.4,45.4,177.4,44.6,177.7z"/>
</g>
</svg>
