<?xml version="1.0" encoding="iso-8859-1"?>
<!-- Generator: Adobe Illustrator 16.0.0, SVG Export Plug-In . SVG Version: 6.00 Build 0)  -->
<!DOCTYPE svg PUBLIC "-//W3C//DTD SVG 1.1//EN" "http://www.w3.org/Graphics/SVG/1.1/DTD/svg11.dtd">
<svg version="1.1" id="Capa_1" xmlns="http://www.w3.org/2000/svg" xmlns:xlink="http://www.w3.org/1999/xlink" x="0px" y="0px"
	 width="548.968px" height="548.969px" viewBox="0 0 548.968 548.969" style="enable-background:new 0 0 548.968 548.969;"
	 xml:space="preserve">
<g>
	<g>
		<path d="M175.139,165.785c-4.661-2.421-22.363-10.356-54.746-10.356C48.392,155.429,0,204.063,0,276.47
			c0,71.118,44.662,117.069,113.759,117.069c29.037,0,50.856-5.935,60.704-11.018c1.525-0.793,2.317-2.53,1.912-4.191l-5.642-23.193
			c-0.272-1.105-1.005-2.01-2.034-2.482c-1.028-0.485-2.196-0.485-3.201,0.012c-11.313,5.496-28.848,8.919-45.776,8.919
			c-51.211,0-81.784-32.19-81.784-86.103c0-55.357,31.182-88.41,83.436-88.41c22.012,0,36.443,5.568,43.075,8.89
			c0.981,0.497,2.131,0.52,3.124,0.097c1.005-0.422,1.773-1.276,2.107-2.329l7.282-23.528
			C177.506,168.478,176.738,166.627,175.139,165.785z"/>
		<path d="M375.239,159.073h-29.163c-2.058,0-3.724,1.664-3.724,3.721v89.737H241.753v-89.737c0-2.057-1.664-3.721-3.721-3.721
			h-29.161c-2.06,0-3.724,1.664-3.724,3.721v223.38c0,2.057,1.664,3.724,3.724,3.724h29.161c2.057,0,3.721-1.667,3.721-3.724
			V285.171h100.599V386.18c0,2.057,1.666,3.718,3.724,3.718h29.163c2.046,0,3.725-1.661,3.725-3.718V162.794
			C378.969,160.737,377.285,159.073,375.239,159.073z"/>
		<path d="M545.245,159.073H424.937c-2.058,0-3.724,1.664-3.724,3.721v223.38c0,2.057,1.666,3.724,3.724,3.724H454.1
			c2.058,0,3.725-1.667,3.725-3.724v-97.362h80.457c2.057,0,3.724-1.667,3.724-3.724v-23.853c0-2.072-1.667-3.736-3.724-3.736
			h-80.457v-66.794h87.42c2.057,0,3.724-1.655,3.724-3.712v-24.199C548.974,160.737,547.301,159.073,545.245,159.073z"/>
	</g>
</g>
<g>
</g>
<g>
</g>
<g>
</g>
<g>
</g>
<g>
</g>
<g>
</g>
<g>
</g>
<g>
</g>
<g>
</g>
<g>
</g>
<g>
</g>
<g>
</g>
<g>
</g>
<g>
</g>
<g>
</g>
</svg>
