<?xml version="1.0" encoding="iso-8859-1"?>
<!-- Generator: Adobe Illustrator 16.0.0, SVG Export Plug-In . SVG Version: 6.00 Build 0)  -->
<!DOCTYPE svg PUBLIC "-//W3C//DTD SVG 1.1//EN" "http://www.w3.org/Graphics/SVG/1.1/DTD/svg11.dtd">
<svg version="1.1" id="Capa_1" xmlns="http://www.w3.org/2000/svg" xmlns:xlink="http://www.w3.org/1999/xlink" x="0px" y="0px"
	 width="71.12px" height="71.121px" viewBox="0 0 71.12 71.121" style="enable-background:new 0 0 71.12 71.121;"
	 xml:space="preserve">
<g>
	<path d="M47.135,6.909c-0.068-0.102-0.076-0.232-0.018-0.34c0.058-0.108,0.17-0.175,0.292-0.175h5.497
		c0.113,0,0.22,0.06,0.279,0.157l4.643,7.472l4.641-7.472c0.061-0.097,0.166-0.157,0.281-0.157h5.414
		c0.121,0,0.232,0.067,0.291,0.174c0.059,0.107,0.053,0.237-0.016,0.339l-7.711,11.73c-0.062,0.093-0.166,0.149-0.275,0.149h-5.251
		c-0.108,0-0.213-0.055-0.274-0.147L47.135,6.909z M71.105,62.25l-1.64-5.578c-0.028-0.098-0.1-0.176-0.192-0.213
		c-0.096-0.039-0.2-0.031-0.289,0.019c-1.473,0.842-4.09,1.844-8.202,1.844c-9.462,0-13.697-7.374-13.697-14.682
		c0-8.683,5.406-14.516,13.451-14.516c3.979,0,6.592,1.001,8.728,1.94c0.088,0.04,0.192,0.038,0.281-0.007
		c0.089-0.044,0.15-0.126,0.174-0.222l1.23-5.414c0.031-0.147-0.037-0.298-0.172-0.367c-2.062-1.077-6.327-2.334-11.555-2.334
		c-12.022,0-20.102,8.275-20.102,20.593c0,12.607,8.906,21.414,21.66,21.414c4.417,0,8.23-1.125,10.156-2.085
		C71.08,62.569,71.152,62.404,71.105,62.25z M16.666,35.791L38.948,7.922c0.151-0.188,0.176-0.442,0.063-0.649
		c-0.109-0.212-0.33-0.341-0.574-0.341h-9.378c-0.196,0-0.394,0.094-0.512,0.244L8.842,32.188V7.548c0-0.34-0.287-0.616-0.643-0.616
		H0.645C0.289,6.932,0,7.208,0,7.548v55.1c0,0.342,0.288,0.617,0.645,0.617h7.554c0.355,0,0.643-0.275,0.643-0.617V42.244
		l2.043-0.035l20.023,20.858c0.121,0.125,0.293,0.198,0.471,0.198h8.944c0.247,0,0.479-0.141,0.588-0.36
		c0.104-0.218,0.065-0.474-0.104-0.663L16.666,35.791z"/>
</g>
<g>
</g>
<g>
</g>
<g>
</g>
<g>
</g>
<g>
</g>
<g>
</g>
<g>
</g>
<g>
</g>
<g>
</g>
<g>
</g>
<g>
</g>
<g>
</g>
<g>
</g>
<g>
</g>
<g>
</g>
</svg>
