<?xml version="1.0" encoding="iso-8859-1"?>
<!-- Generator: Adobe Illustrator 19.0.0, SVG Export Plug-In . SVG Version: 6.00 Build 0)  -->
<svg version="1.1" id="Layer_1" xmlns="http://www.w3.org/2000/svg" xmlns:xlink="http://www.w3.org/1999/xlink" x="0px" y="0px"
	 viewBox="0 0 330 330" style="enable-background:new 0 0 330 330;" xml:space="preserve">
<path id="XMLID_460_" d="M180,0c-41.355,0-75,33.645-75,75v75H90c-8.284,0-15,6.716-15,15s6.716,15,15,15h15v120H90
	c-8.284,0-15,6.716-15,15s6.716,15,15,15h120c8.284,0,15-6.716,15-15s-6.716-15-15-15h-75V180h75c8.284,0,15-6.716,15-15
	s-6.716-15-15-15h-75V75c0-24.813,20.187-45,45-45c24.814,0,45,20.187,45,45c0,8.284,6.716,15,15,15s15-6.716,15-15
	C255,33.645,221.355,0,180,0z"/>
<g>
</g>
<g>
</g>
<g>
</g>
<g>
</g>
<g>
</g>
<g>
</g>
<g>
</g>
<g>
</g>
<g>
</g>
<g>
</g>
<g>
</g>
<g>
</g>
<g>
</g>
<g>
</g>
<g>
</g>
</svg>
