<?xml version="1.0" encoding="iso-8859-1"?>
<!-- Generator: Adobe Illustrator 19.0.0, SVG Export Plug-In . SVG Version: 6.00 Build 0)  -->
<svg version="1.1" id="Layer_1" xmlns="http://www.w3.org/2000/svg" xmlns:xlink="http://www.w3.org/1999/xlink" x="0px" y="0px"
	 viewBox="0 0 330 330" style="enable-background:new 0 0 330 330;" xml:space="preserve">
<path id="XMLID_449_" d="M180,170c46.869,0,85-38.131,85-85S226.869,0,180,0c-0.183,0-0.365,0.003-0.546,0.01h-69.434
	c-0.007,0-0.013-0.001-0.019-0.001c-8.284,0-15,6.716-15,15v0.001V155v45H80c-8.284,0-15,6.716-15,15s6.716,15,15,15h15v85
	c0,8.284,6.716,15,15,15s15-6.716,15-15v-85h55c8.284,0,15-6.716,15-15s-6.716-15-15-15h-55v-30H180z M180,30.01
	c0.162,0,0.324-0.003,0.484-0.008C210.59,30.262,235,54.834,235,85c0,30.327-24.673,55-55,55h-55V30.01H180z"/>
<g>
</g>
<g>
</g>
<g>
</g>
<g>
</g>
<g>
</g>
<g>
</g>
<g>
</g>
<g>
</g>
<g>
</g>
<g>
</g>
<g>
</g>
<g>
</g>
<g>
</g>
<g>
</g>
<g>
</g>
</svg>
